<?xml version="1.0" encoding="UTF-8" standalone="no"?><svg xmlns="http://www.w3.org/2000/svg" xmlns:xlink="http://www.w3.org/1999/xlink" contentScriptType="application/ecmascript" contentStyleType="text/css" height="542px" preserveAspectRatio="none" style="width:1112px;height:542px;" version="1.1" viewBox="0 0 1112 542" width="1112px" zoomAndPan="magnify"><defs><filter height="300%" id="f9fyz5joa6w7g" width="300%" x="-1" y="-1"><feGaussianBlur result="blurOut" stdDeviation="2.0"/><feColorMatrix in="blurOut" result="blurOut2" type="matrix" values="0 0 0 0 0 0 0 0 0 0 0 0 0 0 0 0 0 0 .4 0"/><feOffset dx="4.0" dy="4.0" in="blurOut2" result="blurOut3"/><feBlend in="SourceGraphic" in2="blurOut3" mode="normal"/></filter></defs><g><line style="stroke:#A80036;stroke-width:1.0;stroke-dasharray:5.0,5.0;" x1="24" x2="24" y1="88.2969" y2="457.8906"/><line style="stroke:#A80036;stroke-width:1.0;stroke-dasharray:5.0,5.0;" x1="122.5" x2="122.5" y1="88.2969" y2="457.8906"/><line style="stroke:#A80036;stroke-width:1.0;stroke-dasharray:5.0,5.0;" x1="323.5" x2="323.5" y1="88.2969" y2="457.8906"/><line style="stroke:#A80036;stroke-width:1.0;stroke-dasharray:5.0,5.0;" x1="515.5" x2="515.5" y1="88.2969" y2="457.8906"/><line style="stroke:#A80036;stroke-width:1.0;stroke-dasharray:5.0,5.0;" x1="821.5" x2="821.5" y1="88.2969" y2="457.8906"/><line style="stroke:#A80036;stroke-width:1.0;stroke-dasharray:5.0,5.0;" x1="924.5" x2="924.5" y1="88.2969" y2="457.8906"/><line style="stroke:#A80036;stroke-width:1.0;stroke-dasharray:5.0,5.0;" x1="1038" x2="1038" y1="88.2969" y2="457.8906"/><line style="stroke:#A80036;stroke-width:1.0;stroke-dasharray:5.0,5.0;" x1="1087" x2="1087" y1="88.2969" y2="457.8906"/><text fill="#000000" font-family="sans-serif" font-size="14" lengthAdjust="spacingAndGlyphs" textLength="32" x="5" y="84.9951">User</text><ellipse cx="24" cy="15" fill="#FEFECE" filter="url(#f9fyz5joa6w7g)" rx="8" ry="8" style="stroke:#A80036;stroke-width:2.0;"/><path d="M24,23 L24,50 M11,31 L37,31 M24,50 L11,65 M24,50 L37,65 " fill="none" filter="url(#f9fyz5joa6w7g)" style="stroke:#A80036;stroke-width:2.0;"/><text fill="#000000" font-family="sans-serif" font-size="14" lengthAdjust="spacingAndGlyphs" textLength="32" x="5" y="469.8857">User</text><ellipse cx="24" cy="483.1875" fill="#FEFECE" filter="url(#f9fyz5joa6w7g)" rx="8" ry="8" style="stroke:#A80036;stroke-width:2.0;"/><path d="M24,491.1875 L24,518.1875 M11,499.1875 L37,499.1875 M24,518.1875 L11,533.1875 M24,518.1875 L37,533.1875 " fill="none" filter="url(#f9fyz5joa6w7g)" style="stroke:#A80036;stroke-width:2.0;"/><text fill="#000000" font-family="sans-serif" font-size="14" lengthAdjust="spacingAndGlyphs" textLength="13" x="113.5" y="84.9951">UI</text><path d="M102.5,44 L102.5,68 M102.5,56 L119.5,56 " fill="none" filter="url(#f9fyz5joa6w7g)" style="stroke:#A80036;stroke-width:2.0;"/><ellipse cx="131.5" cy="56" fill="#FEFECE" filter="url(#f9fyz5joa6w7g)" rx="12" ry="12" style="stroke:#A80036;stroke-width:2.0;"/><text fill="#000000" font-family="sans-serif" font-size="14" lengthAdjust="spacingAndGlyphs" textLength="13" x="113.5" y="469.8857">UI</text><path d="M102.5,477.1875 L102.5,501.1875 M102.5,489.1875 L119.5,489.1875 " fill="none" filter="url(#f9fyz5joa6w7g)" style="stroke:#A80036;stroke-width:2.0;"/><ellipse cx="131.5" cy="489.1875" fill="#FEFECE" filter="url(#f9fyz5joa6w7g)" rx="12" ry="12" style="stroke:#A80036;stroke-width:2.0;"/><text fill="#000000" font-family="sans-serif" font-size="14" lengthAdjust="spacingAndGlyphs" textLength="27" x="307.5" y="84.9951">App</text><ellipse cx="324" cy="56" fill="#FEFECE" filter="url(#f9fyz5joa6w7g)" rx="12" ry="12" style="stroke:#A80036;stroke-width:2.0;"/><polygon fill="#A80036" points="320,44,326,39,324,44,326,49,320,44" style="stroke:#A80036;stroke-width:1.0;"/><text fill="#000000" font-family="sans-serif" font-size="14" lengthAdjust="spacingAndGlyphs" textLength="27" x="307.5" y="469.8857">App</text><ellipse cx="324" cy="489.1875" fill="#FEFECE" filter="url(#f9fyz5joa6w7g)" rx="12" ry="12" style="stroke:#A80036;stroke-width:2.0;"/><polygon fill="#A80036" points="320,477.1875,326,472.1875,324,477.1875,326,482.1875,320,477.1875" style="stroke:#A80036;stroke-width:1.0;"/><text fill="#000000" font-family="sans-serif" font-size="14" lengthAdjust="spacingAndGlyphs" textLength="31" x="497.5" y="84.9951">Club</text><ellipse cx="516" cy="56" fill="#FEFECE" filter="url(#f9fyz5joa6w7g)" rx="12" ry="12" style="stroke:#A80036;stroke-width:2.0;"/><polygon fill="#A80036" points="512,44,518,39,516,44,518,49,512,44" style="stroke:#A80036;stroke-width:1.0;"/><text fill="#000000" font-family="sans-serif" font-size="14" lengthAdjust="spacingAndGlyphs" textLength="31" x="497.5" y="469.8857">Club</text><ellipse cx="516" cy="489.1875" fill="#FEFECE" filter="url(#f9fyz5joa6w7g)" rx="12" ry="12" style="stroke:#A80036;stroke-width:2.0;"/><polygon fill="#A80036" points="512,477.1875,518,472.1875,516,477.1875,518,482.1875,512,477.1875" style="stroke:#A80036;stroke-width:1.0;"/><text fill="#000000" font-family="sans-serif" font-size="14" lengthAdjust="spacingAndGlyphs" textLength="79" x="779.5" y="84.9951">ShowPlayer</text><ellipse cx="822" cy="56" fill="#FEFECE" filter="url(#f9fyz5joa6w7g)" rx="12" ry="12" style="stroke:#A80036;stroke-width:2.0;"/><polygon fill="#A80036" points="818,44,824,39,822,44,824,49,818,44" style="stroke:#A80036;stroke-width:1.0;"/><text fill="#000000" font-family="sans-serif" font-size="14" lengthAdjust="spacingAndGlyphs" textLength="79" x="779.5" y="469.8857">ShowPlayer</text><ellipse cx="822" cy="489.1875" fill="#FEFECE" filter="url(#f9fyz5joa6w7g)" rx="12" ry="12" style="stroke:#A80036;stroke-width:2.0;"/><polygon fill="#A80036" points="818,477.1875,824,472.1875,822,477.1875,824,482.1875,818,477.1875" style="stroke:#A80036;stroke-width:1.0;"/><text fill="#000000" font-family="sans-serif" font-size="14" lengthAdjust="spacingAndGlyphs" textLength="95" x="874.5" y="84.9951">fetchOneClub</text><ellipse cx="925" cy="56" fill="#FEFECE" filter="url(#f9fyz5joa6w7g)" rx="12" ry="12" style="stroke:#A80036;stroke-width:2.0;"/><polygon fill="#A80036" points="921,44,927,39,925,44,927,49,921,44" style="stroke:#A80036;stroke-width:1.0;"/><text fill="#000000" font-family="sans-serif" font-size="14" lengthAdjust="spacingAndGlyphs" textLength="95" x="874.5" y="469.8857">fetchOneClub</text><ellipse cx="925" cy="489.1875" fill="#FEFECE" filter="url(#f9fyz5joa6w7g)" rx="12" ry="12" style="stroke:#A80036;stroke-width:2.0;"/><polygon fill="#A80036" points="921,477.1875,927,472.1875,925,477.1875,927,482.1875,921,477.1875" style="stroke:#A80036;stroke-width:1.0;"/><text fill="#000000" font-family="sans-serif" font-size="14" lengthAdjust="spacingAndGlyphs" textLength="36" x="1017" y="84.9951">store</text><path d="M1020,36 C1020,26 1038,26 1038,26 C1038,26 1056,26 1056,36 L1056,62 C1056,72 1038,72 1038,72 C1038,72 1020,72 1020,62 L1020,36 " fill="#FEFECE" filter="url(#f9fyz5joa6w7g)" style="stroke:#000000;stroke-width:1.5;"/><path d="M1020,36 C1020,46 1038,46 1038,46 C1038,46 1056,46 1056,36 " fill="none" style="stroke:#000000;stroke-width:1.5;"/><text fill="#000000" font-family="sans-serif" font-size="14" lengthAdjust="spacingAndGlyphs" textLength="36" x="1017" y="469.8857">store</text><path d="M1020,483.1875 C1020,473.1875 1038,473.1875 1038,473.1875 C1038,473.1875 1056,473.1875 1056,483.1875 L1056,509.1875 C1056,519.1875 1038,519.1875 1038,519.1875 C1038,519.1875 1020,519.1875 1020,509.1875 L1020,483.1875 " fill="#FEFECE" filter="url(#f9fyz5joa6w7g)" style="stroke:#000000;stroke-width:1.5;"/><path d="M1020,483.1875 C1020,493.1875 1038,493.1875 1038,493.1875 C1038,493.1875 1056,493.1875 1056,483.1875 " fill="none" style="stroke:#000000;stroke-width:1.5;"/><text fill="#000000" font-family="sans-serif" font-size="14" lengthAdjust="spacingAndGlyphs" textLength="21" x="1073.5" y="84.9951">API</text><path d="M1069,36 C1069,26 1087,26 1087,26 C1087,26 1105,26 1105,36 L1105,62 C1105,72 1087,72 1087,72 C1087,72 1069,72 1069,62 L1069,36 " fill="#FEFECE" filter="url(#f9fyz5joa6w7g)" style="stroke:#000000;stroke-width:1.5;"/><path d="M1069,36 C1069,46 1087,46 1087,46 C1087,46 1105,46 1105,36 " fill="none" style="stroke:#000000;stroke-width:1.5;"/><text fill="#000000" font-family="sans-serif" font-size="14" lengthAdjust="spacingAndGlyphs" textLength="21" x="1073.5" y="469.8857">API</text><path d="M1069,483.1875 C1069,473.1875 1087,473.1875 1087,473.1875 C1087,473.1875 1105,473.1875 1105,483.1875 L1105,509.1875 C1105,519.1875 1087,519.1875 1087,519.1875 C1087,519.1875 1069,519.1875 1069,509.1875 L1069,483.1875 " fill="#FEFECE" filter="url(#f9fyz5joa6w7g)" style="stroke:#000000;stroke-width:1.5;"/><path d="M1069,483.1875 C1069,493.1875 1087,493.1875 1087,493.1875 C1087,493.1875 1105,493.1875 1105,483.1875 " fill="none" style="stroke:#000000;stroke-width:1.5;"/><polygon fill="#A80036" points="111,115.4297,121,119.4297,111,123.4297,115,119.4297" style="stroke:#A80036;stroke-width:1.0;"/><line style="stroke:#A80036;stroke-width:1.0;" x1="24" x2="117" y1="119.4297" y2="119.4297"/><text fill="#000000" font-family="sans-serif" font-size="13" lengthAdjust="spacingAndGlyphs" textLength="75" x="31" y="114.3638">opens page</text><polygon fill="#A80036" points="312,144.5625,322,148.5625,312,152.5625,316,148.5625" style="stroke:#A80036;stroke-width:1.0;"/><line style="stroke:#A80036;stroke-width:1.0;" x1="123" x2="318" y1="148.5625" y2="148.5625"/><text fill="#000000" font-family="sans-serif" font-size="13" lengthAdjust="spacingAndGlyphs" textLength="98" x="130" y="143.4966">request Club UI</text><polygon fill="#A80036" points="504,173.6953,514,177.6953,504,181.6953,508,177.6953" style="stroke:#A80036;stroke-width:1.0;"/><line style="stroke:#A80036;stroke-width:1.0;" x1="324" x2="510" y1="177.6953" y2="177.6953"/><text fill="#000000" font-family="sans-serif" font-size="13" lengthAdjust="spacingAndGlyphs" textLength="158" x="331" y="172.6294">request Club component</text><polygon fill="#A80036" points="913,202.8281,923,206.8281,913,210.8281,917,206.8281" style="stroke:#A80036;stroke-width:1.0;"/><line style="stroke:#A80036;stroke-width:1.0;" x1="516" x2="919" y1="206.8281" y2="206.8281"/><text fill="#000000" font-family="sans-serif" font-size="13" lengthAdjust="spacingAndGlyphs" textLength="131" x="523" y="201.7622">dispatch API request</text><polygon fill="#A80036" points="1075,231.9609,1085,235.9609,1075,239.9609,1079,235.9609" style="stroke:#A80036;stroke-width:1.0;"/><line style="stroke:#A80036;stroke-width:1.0;" x1="925" x2="1081" y1="235.9609" y2="235.9609"/><text fill="#000000" font-family="sans-serif" font-size="13" lengthAdjust="spacingAndGlyphs" textLength="114" x="932" y="230.895">HTTP GET request</text><polygon fill="#A80036" points="936,261.0938,926,265.0938,936,269.0938,932,265.0938" style="stroke:#A80036;stroke-width:1.0;"/><line style="stroke:#A80036;stroke-width:1.0;" x1="930" x2="1086" y1="265.0938" y2="265.0938"/><text fill="#000000" font-family="sans-serif" font-size="13" lengthAdjust="spacingAndGlyphs" textLength="95" x="942" y="260.0278">HTTP response</text><polygon fill="#A80036" points="1026,290.2266,1036,294.2266,1026,298.2266,1030,294.2266" style="stroke:#A80036;stroke-width:1.0;"/><line style="stroke:#A80036;stroke-width:1.0;" x1="925" x2="1032" y1="294.2266" y2="294.2266"/><text fill="#000000" font-family="sans-serif" font-size="13" lengthAdjust="spacingAndGlyphs" textLength="89" x="932" y="289.1606">updates store</text><polygon fill="#A80036" points="527,319.3594,517,323.3594,527,327.3594,523,323.3594" style="stroke:#A80036;stroke-width:1.0;"/><line style="stroke:#A80036;stroke-width:1.0;" x1="521" x2="1037" y1="323.3594" y2="323.3594"/><text fill="#000000" font-family="sans-serif" font-size="13" lengthAdjust="spacingAndGlyphs" textLength="173" x="533" y="318.2935">allow access to information</text><polygon fill="#A80036" points="810,348.4922,820,352.4922,810,356.4922,814,352.4922" style="stroke:#A80036;stroke-width:1.0;"/><line style="stroke:#A80036;stroke-width:1.0;" x1="516" x2="816" y1="352.4922" y2="352.4922"/><text fill="#000000" font-family="sans-serif" font-size="13" lengthAdjust="spacingAndGlyphs" textLength="282" x="523" y="347.4263">send data of 1 Club and request component</text><polygon fill="#A80036" points="527,377.625,517,381.625,527,385.625,523,381.625" style="stroke:#A80036;stroke-width:1.0;"/><line style="stroke:#A80036;stroke-width:1.0;" x1="521" x2="821" y1="381.625" y2="381.625"/><text fill="#000000" font-family="sans-serif" font-size="13" lengthAdjust="spacingAndGlyphs" textLength="213" x="533" y="376.5591">response ShowPlayer component</text><polygon fill="#A80036" points="335,406.7578,325,410.7578,335,414.7578,331,410.7578" style="stroke:#A80036;stroke-width:1.0;"/><line style="stroke:#A80036;stroke-width:1.0;" x1="329" x2="515" y1="410.7578" y2="410.7578"/><text fill="#000000" font-family="sans-serif" font-size="13" lengthAdjust="spacingAndGlyphs" textLength="168" x="341" y="405.6919">response Club component</text><polygon fill="#A80036" points="134,435.8906,124,439.8906,134,443.8906,130,439.8906" style="stroke:#A80036;stroke-width:1.0;"/><line style="stroke:#A80036;stroke-width:1.0;" x1="128" x2="323" y1="439.8906" y2="439.8906"/><text fill="#000000" font-family="sans-serif" font-size="13" lengthAdjust="spacingAndGlyphs" textLength="177" x="140" y="434.8247">response HTML, CSS and JS</text><!--MD5=[7770d783d7ecabe7bfe2551c651fccf6]
@startuml

actor User
boundary UI
control App
control Club
control ShowPlayer
control fetchOneClub
database store
database API

User -> UI : opens page
UI -> App: request Club UI
App -> Club: request Club component
Club-> fetchOneClub: dispatch API request 
fetchOneClub -> API: HTTP GET request
API -> fetchOneClub : HTTP response
fetchOneClub -> store: updates store
store -> Club : allow access to information
Club -> ShowPlayer : send data of 1 Club and request component
ShowPlayer -> Club: response ShowPlayer component
Club -> App: response Club component
App -> UI: response HTML, CSS and JS
@enduml

PlantUML version 1.2020.22(Sun Dec 06 09:36:27 WET 2020)
(GPL source distribution)
Java Runtime: OpenJDK Runtime Environment
JVM: OpenJDK 64-Bit Server VM
Default Encoding: UTF-8
Language: en
Country: null
--></g></svg>