<svg xmlns="http://www.w3.org/2000/svg" xmlns:xlink="http://www.w3.org/1999/xlink" width="1112" height="542" contentScriptType="application/ecmascript" contentStyleType="text/css" style="width:1112px;height:542px" preserveAspectRatio="none" version="1.1" viewBox="0 0 1112 542" zoomAndPan="magnify"><defs><filter id="f9fyz5joa6w7g" width="300%" height="300%" x="-1" y="-1"><feGaussianBlur result="blurOut" stdDeviation="2"/><feColorMatrix in="blurOut" result="blurOut2" type="matrix" values="0 0 0 0 0 0 0 0 0 0 0 0 0 0 0 0 0 0 .4 0"/><feOffset dx="4" dy="4" in="blurOut2" result="blurOut3"/><feBlend in="SourceGraphic" in2="blurOut3" mode="normal"/></filter></defs><g><line style="stroke:#a80036;stroke-width:1;stroke-dasharray:5,5" x1="24" x2="24" y1="88.297" y2="457.891"/><line style="stroke:#a80036;stroke-width:1;stroke-dasharray:5,5" x1="122.5" x2="122.5" y1="88.297" y2="457.891"/><line style="stroke:#a80036;stroke-width:1;stroke-dasharray:5,5" x1="323.5" x2="323.5" y1="88.297" y2="457.891"/><line style="stroke:#a80036;stroke-width:1;stroke-dasharray:5,5" x1="515.5" x2="515.5" y1="88.297" y2="457.891"/><line style="stroke:#a80036;stroke-width:1;stroke-dasharray:5,5" x1="821.5" x2="821.5" y1="88.297" y2="457.891"/><line style="stroke:#a80036;stroke-width:1;stroke-dasharray:5,5" x1="924.5" x2="924.5" y1="88.297" y2="457.891"/><line style="stroke:#a80036;stroke-width:1;stroke-dasharray:5,5" x1="1038" x2="1038" y1="88.297" y2="457.891"/><line style="stroke:#a80036;stroke-width:1;stroke-dasharray:5,5" x1="1087" x2="1087" y1="88.297" y2="457.891"/><text x="5" y="84.995" fill="#000" font-family="sans-serif" font-size="14" lengthAdjust="spacingAndGlyphs" textLength="32">User</text><ellipse cx="24" cy="15" fill="#FEFECE" filter="url(#f9fyz5joa6w7g)" rx="8" ry="8" style="stroke:#a80036;stroke-width:2"/><path fill="none" d="M24,23 L24,50 M11,31 L37,31 M24,50 L11,65 M24,50 L37,65" filter="url(#f9fyz5joa6w7g)" style="stroke:#a80036;stroke-width:2"/><text x="5" y="469.886" fill="#000" font-family="sans-serif" font-size="14" lengthAdjust="spacingAndGlyphs" textLength="32">User</text><ellipse cx="24" cy="483.188" fill="#FEFECE" filter="url(#f9fyz5joa6w7g)" rx="8" ry="8" style="stroke:#a80036;stroke-width:2"/><path fill="none" d="M24,491.1875 L24,518.1875 M11,499.1875 L37,499.1875 M24,518.1875 L11,533.1875 M24,518.1875 L37,533.1875" filter="url(#f9fyz5joa6w7g)" style="stroke:#a80036;stroke-width:2"/><text x="113.5" y="84.995" fill="#000" font-family="sans-serif" font-size="14" lengthAdjust="spacingAndGlyphs" textLength="13">UI</text><path fill="none" d="M102.5,44 L102.5,68 M102.5,56 L119.5,56" filter="url(#f9fyz5joa6w7g)" style="stroke:#a80036;stroke-width:2"/><ellipse cx="131.5" cy="56" fill="#FEFECE" filter="url(#f9fyz5joa6w7g)" rx="12" ry="12" style="stroke:#a80036;stroke-width:2"/><text x="113.5" y="469.886" fill="#000" font-family="sans-serif" font-size="14" lengthAdjust="spacingAndGlyphs" textLength="13">UI</text><path fill="none" d="M102.5,477.1875 L102.5,501.1875 M102.5,489.1875 L119.5,489.1875" filter="url(#f9fyz5joa6w7g)" style="stroke:#a80036;stroke-width:2"/><ellipse cx="131.5" cy="489.188" fill="#FEFECE" filter="url(#f9fyz5joa6w7g)" rx="12" ry="12" style="stroke:#a80036;stroke-width:2"/><text x="307.5" y="84.995" fill="#000" font-family="sans-serif" font-size="14" lengthAdjust="spacingAndGlyphs" textLength="27">App</text><ellipse cx="324" cy="56" fill="#FEFECE" filter="url(#f9fyz5joa6w7g)" rx="12" ry="12" style="stroke:#a80036;stroke-width:2"/><polygon fill="#A80036" points="320 44 326 39 324 44 326 49 320 44" style="stroke:#a80036;stroke-width:1"/><text x="307.5" y="469.886" fill="#000" font-family="sans-serif" font-size="14" lengthAdjust="spacingAndGlyphs" textLength="27">App</text><ellipse cx="324" cy="489.188" fill="#FEFECE" filter="url(#f9fyz5joa6w7g)" rx="12" ry="12" style="stroke:#a80036;stroke-width:2"/><polygon fill="#A80036" points="320 477.188 326 472.188 324 477.188 326 482.188 320 477.188" style="stroke:#a80036;stroke-width:1"/><text x="497.5" y="84.995" fill="#000" font-family="sans-serif" font-size="14" lengthAdjust="spacingAndGlyphs" textLength="31">Club</text><ellipse cx="516" cy="56" fill="#FEFECE" filter="url(#f9fyz5joa6w7g)" rx="12" ry="12" style="stroke:#a80036;stroke-width:2"/><polygon fill="#A80036" points="512 44 518 39 516 44 518 49 512 44" style="stroke:#a80036;stroke-width:1"/><text x="497.5" y="469.886" fill="#000" font-family="sans-serif" font-size="14" lengthAdjust="spacingAndGlyphs" textLength="31">Club</text><ellipse cx="516" cy="489.188" fill="#FEFECE" filter="url(#f9fyz5joa6w7g)" rx="12" ry="12" style="stroke:#a80036;stroke-width:2"/><polygon fill="#A80036" points="512 477.188 518 472.188 516 477.188 518 482.188 512 477.188" style="stroke:#a80036;stroke-width:1"/><text x="779.5" y="84.995" fill="#000" font-family="sans-serif" font-size="14" lengthAdjust="spacingAndGlyphs" textLength="79">ShowPlayer</text><ellipse cx="822" cy="56" fill="#FEFECE" filter="url(#f9fyz5joa6w7g)" rx="12" ry="12" style="stroke:#a80036;stroke-width:2"/><polygon fill="#A80036" points="818 44 824 39 822 44 824 49 818 44" style="stroke:#a80036;stroke-width:1"/><text x="779.5" y="469.886" fill="#000" font-family="sans-serif" font-size="14" lengthAdjust="spacingAndGlyphs" textLength="79">ShowPlayer</text><ellipse cx="822" cy="489.188" fill="#FEFECE" filter="url(#f9fyz5joa6w7g)" rx="12" ry="12" style="stroke:#a80036;stroke-width:2"/><polygon fill="#A80036" points="818 477.188 824 472.188 822 477.188 824 482.188 818 477.188" style="stroke:#a80036;stroke-width:1"/><text x="874.5" y="84.995" fill="#000" font-family="sans-serif" font-size="14" lengthAdjust="spacingAndGlyphs" textLength="95">fetchOneClub</text><ellipse cx="925" cy="56" fill="#FEFECE" filter="url(#f9fyz5joa6w7g)" rx="12" ry="12" style="stroke:#a80036;stroke-width:2"/><polygon fill="#A80036" points="921 44 927 39 925 44 927 49 921 44" style="stroke:#a80036;stroke-width:1"/><text x="874.5" y="469.886" fill="#000" font-family="sans-serif" font-size="14" lengthAdjust="spacingAndGlyphs" textLength="95">fetchOneClub</text><ellipse cx="925" cy="489.188" fill="#FEFECE" filter="url(#f9fyz5joa6w7g)" rx="12" ry="12" style="stroke:#a80036;stroke-width:2"/><polygon fill="#A80036" points="921 477.188 927 472.188 925 477.188 927 482.188 921 477.188" style="stroke:#a80036;stroke-width:1"/><text x="1017" y="84.995" fill="#000" font-family="sans-serif" font-size="14" lengthAdjust="spacingAndGlyphs" textLength="36">store</text><path fill="#FEFECE" d="M1020,36 C1020,26 1038,26 1038,26 C1038,26 1056,26 1056,36 L1056,62 C1056,72 1038,72 1038,72 C1038,72 1020,72 1020,62 L1020,36" filter="url(#f9fyz5joa6w7g)" style="stroke:#000;stroke-width:1.5"/><path fill="none" d="M1020,36 C1020,46 1038,46 1038,46 C1038,46 1056,46 1056,36" style="stroke:#000;stroke-width:1.5"/><text x="1017" y="469.886" fill="#000" font-family="sans-serif" font-size="14" lengthAdjust="spacingAndGlyphs" textLength="36">store</text><path fill="#FEFECE" d="M1020,483.1875 C1020,473.1875 1038,473.1875 1038,473.1875 C1038,473.1875 1056,473.1875 1056,483.1875 L1056,509.1875 C1056,519.1875 1038,519.1875 1038,519.1875 C1038,519.1875 1020,519.1875 1020,509.1875 L1020,483.1875" filter="url(#f9fyz5joa6w7g)" style="stroke:#000;stroke-width:1.5"/><path fill="none" d="M1020,483.1875 C1020,493.1875 1038,493.1875 1038,493.1875 C1038,493.1875 1056,493.1875 1056,483.1875" style="stroke:#000;stroke-width:1.5"/><text x="1073.5" y="84.995" fill="#000" font-family="sans-serif" font-size="14" lengthAdjust="spacingAndGlyphs" textLength="21">API</text><path fill="#FEFECE" d="M1069,36 C1069,26 1087,26 1087,26 C1087,26 1105,26 1105,36 L1105,62 C1105,72 1087,72 1087,72 C1087,72 1069,72 1069,62 L1069,36" filter="url(#f9fyz5joa6w7g)" style="stroke:#000;stroke-width:1.5"/><path fill="none" d="M1069,36 C1069,46 1087,46 1087,46 C1087,46 1105,46 1105,36" style="stroke:#000;stroke-width:1.5"/><text x="1073.5" y="469.886" fill="#000" font-family="sans-serif" font-size="14" lengthAdjust="spacingAndGlyphs" textLength="21">API</text><path fill="#FEFECE" d="M1069,483.1875 C1069,473.1875 1087,473.1875 1087,473.1875 C1087,473.1875 1105,473.1875 1105,483.1875 L1105,509.1875 C1105,519.1875 1087,519.1875 1087,519.1875 C1087,519.1875 1069,519.1875 1069,509.1875 L1069,483.1875" filter="url(#f9fyz5joa6w7g)" style="stroke:#000;stroke-width:1.5"/><path fill="none" d="M1069,483.1875 C1069,493.1875 1087,493.1875 1087,493.1875 C1087,493.1875 1105,493.1875 1105,483.1875" style="stroke:#000;stroke-width:1.5"/><polygon fill="#A80036" points="111 115.43 121 119.43 111 123.43 115 119.43" style="stroke:#a80036;stroke-width:1"/><line style="stroke:#a80036;stroke-width:1" x1="24" x2="117" y1="119.43" y2="119.43"/><text x="31" y="114.364" fill="#000" font-family="sans-serif" font-size="13" lengthAdjust="spacingAndGlyphs" textLength="75">opens page</text><polygon fill="#A80036" points="312 144.563 322 148.563 312 152.563 316 148.563" style="stroke:#a80036;stroke-width:1"/><line style="stroke:#a80036;stroke-width:1" x1="123" x2="318" y1="148.563" y2="148.563"/><text x="130" y="143.497" fill="#000" font-family="sans-serif" font-size="13" lengthAdjust="spacingAndGlyphs" textLength="98">request Club UI</text><polygon fill="#A80036" points="504 173.695 514 177.695 504 181.695 508 177.695" style="stroke:#a80036;stroke-width:1"/><line style="stroke:#a80036;stroke-width:1" x1="324" x2="510" y1="177.695" y2="177.695"/><text x="331" y="172.629" fill="#000" font-family="sans-serif" font-size="13" lengthAdjust="spacingAndGlyphs" textLength="158">request Club component</text><polygon fill="#A80036" points="913 202.828 923 206.828 913 210.828 917 206.828" style="stroke:#a80036;stroke-width:1"/><line style="stroke:#a80036;stroke-width:1" x1="516" x2="919" y1="206.828" y2="206.828"/><text x="523" y="201.762" fill="#000" font-family="sans-serif" font-size="13" lengthAdjust="spacingAndGlyphs" textLength="131">dispatch API request</text><polygon fill="#A80036" points="1075 231.961 1085 235.961 1075 239.961 1079 235.961" style="stroke:#a80036;stroke-width:1"/><line style="stroke:#a80036;stroke-width:1" x1="925" x2="1081" y1="235.961" y2="235.961"/><text x="932" y="230.895" fill="#000" font-family="sans-serif" font-size="13" lengthAdjust="spacingAndGlyphs" textLength="114">HTTP GET request</text><polygon fill="#A80036" points="936 261.094 926 265.094 936 269.094 932 265.094" style="stroke:#a80036;stroke-width:1"/><line style="stroke:#a80036;stroke-width:1" x1="930" x2="1086" y1="265.094" y2="265.094"/><text x="942" y="260.028" fill="#000" font-family="sans-serif" font-size="13" lengthAdjust="spacingAndGlyphs" textLength="95">HTTP response</text><polygon fill="#A80036" points="1026 290.227 1036 294.227 1026 298.227 1030 294.227" style="stroke:#a80036;stroke-width:1"/><line style="stroke:#a80036;stroke-width:1" x1="925" x2="1032" y1="294.227" y2="294.227"/><text x="932" y="289.161" fill="#000" font-family="sans-serif" font-size="13" lengthAdjust="spacingAndGlyphs" textLength="89">updates store</text><polygon fill="#A80036" points="527 319.359 517 323.359 527 327.359 523 323.359" style="stroke:#a80036;stroke-width:1"/><line style="stroke:#a80036;stroke-width:1" x1="521" x2="1037" y1="323.359" y2="323.359"/><text x="533" y="318.293" fill="#000" font-family="sans-serif" font-size="13" lengthAdjust="spacingAndGlyphs" textLength="173">allow access to information</text><polygon fill="#A80036" points="810 348.492 820 352.492 810 356.492 814 352.492" style="stroke:#a80036;stroke-width:1"/><line style="stroke:#a80036;stroke-width:1" x1="516" x2="816" y1="352.492" y2="352.492"/><text x="523" y="347.426" fill="#000" font-family="sans-serif" font-size="13" lengthAdjust="spacingAndGlyphs" textLength="282">send data of 1 Club and request component</text><polygon fill="#A80036" points="527 377.625 517 381.625 527 385.625 523 381.625" style="stroke:#a80036;stroke-width:1"/><line style="stroke:#a80036;stroke-width:1" x1="521" x2="821" y1="381.625" y2="381.625"/><text x="533" y="376.559" fill="#000" font-family="sans-serif" font-size="13" lengthAdjust="spacingAndGlyphs" textLength="213">response ShowPlayer component</text><polygon fill="#A80036" points="335 406.758 325 410.758 335 414.758 331 410.758" style="stroke:#a80036;stroke-width:1"/><line style="stroke:#a80036;stroke-width:1" x1="329" x2="515" y1="410.758" y2="410.758"/><text x="341" y="405.692" fill="#000" font-family="sans-serif" font-size="13" lengthAdjust="spacingAndGlyphs" textLength="168">response Club component</text><polygon fill="#A80036" points="134 435.891 124 439.891 134 443.891 130 439.891" style="stroke:#a80036;stroke-width:1"/><line style="stroke:#a80036;stroke-width:1" x1="128" x2="323" y1="439.891" y2="439.891"/><text x="140" y="434.825" fill="#000" font-family="sans-serif" font-size="13" lengthAdjust="spacingAndGlyphs" textLength="177">response HTML, CSS and JS</text></g></svg>