<svg xmlns="http://www.w3.org/2000/svg" xmlns:xlink="http://www.w3.org/1999/xlink" width="1182" height="542" contentScriptType="application/ecmascript" contentStyleType="text/css" style="width:1182px;height:542px" preserveAspectRatio="none" version="1.1" viewBox="0 0 1182 542" zoomAndPan="magnify"><defs><filter id="f1c5ta7oa745hg" width="300%" height="300%" x="-1" y="-1"><feGaussianBlur result="blurOut" stdDeviation="2"/><feColorMatrix in="blurOut" result="blurOut2" type="matrix" values="0 0 0 0 0 0 0 0 0 0 0 0 0 0 0 0 0 0 .4 0"/><feOffset dx="4" dy="4" in="blurOut2" result="blurOut3"/><feBlend in="SourceGraphic" in2="blurOut3" mode="normal"/></filter></defs><g><line style="stroke:#a80036;stroke-width:1;stroke-dasharray:5,5" x1="24" x2="24" y1="88.297" y2="457.891"/><line style="stroke:#a80036;stroke-width:1;stroke-dasharray:5,5" x1="122.5" x2="122.5" y1="88.297" y2="457.891"/><line style="stroke:#a80036;stroke-width:1;stroke-dasharray:5,5" x1="323.5" x2="323.5" y1="88.297" y2="457.891"/><line style="stroke:#a80036;stroke-width:1;stroke-dasharray:5,5" x1="559" x2="559" y1="88.297" y2="457.891"/><line style="stroke:#a80036;stroke-width:1;stroke-dasharray:5,5" x1="879.5" x2="879.5" y1="88.297" y2="457.891"/><line style="stroke:#a80036;stroke-width:1;stroke-dasharray:5,5" x1="994.5" x2="994.5" y1="88.297" y2="457.891"/><line style="stroke:#a80036;stroke-width:1;stroke-dasharray:5,5" x1="1108" x2="1108" y1="88.297" y2="457.891"/><line style="stroke:#a80036;stroke-width:1;stroke-dasharray:5,5" x1="1157" x2="1157" y1="88.297" y2="457.891"/><text x="5" y="84.995" fill="#000" font-family="sans-serif" font-size="14" lengthAdjust="spacingAndGlyphs" textLength="32">User</text><ellipse cx="24" cy="15" fill="#FEFECE" filter="url(#f1c5ta7oa745hg)" rx="8" ry="8" style="stroke:#a80036;stroke-width:2"/><path fill="none" d="M24,23 L24,50 M11,31 L37,31 M24,50 L11,65 M24,50 L37,65" filter="url(#f1c5ta7oa745hg)" style="stroke:#a80036;stroke-width:2"/><text x="5" y="469.886" fill="#000" font-family="sans-serif" font-size="14" lengthAdjust="spacingAndGlyphs" textLength="32">User</text><ellipse cx="24" cy="483.188" fill="#FEFECE" filter="url(#f1c5ta7oa745hg)" rx="8" ry="8" style="stroke:#a80036;stroke-width:2"/><path fill="none" d="M24,491.1875 L24,518.1875 M11,499.1875 L37,499.1875 M24,518.1875 L11,533.1875 M24,518.1875 L37,533.1875" filter="url(#f1c5ta7oa745hg)" style="stroke:#a80036;stroke-width:2"/><text x="113.5" y="84.995" fill="#000" font-family="sans-serif" font-size="14" lengthAdjust="spacingAndGlyphs" textLength="13">UI</text><path fill="none" d="M102.5,44 L102.5,68 M102.5,56 L119.5,56" filter="url(#f1c5ta7oa745hg)" style="stroke:#a80036;stroke-width:2"/><ellipse cx="131.5" cy="56" fill="#FEFECE" filter="url(#f1c5ta7oa745hg)" rx="12" ry="12" style="stroke:#a80036;stroke-width:2"/><text x="113.5" y="469.886" fill="#000" font-family="sans-serif" font-size="14" lengthAdjust="spacingAndGlyphs" textLength="13">UI</text><path fill="none" d="M102.5,477.1875 L102.5,501.1875 M102.5,489.1875 L119.5,489.1875" filter="url(#f1c5ta7oa745hg)" style="stroke:#a80036;stroke-width:2"/><ellipse cx="131.5" cy="489.188" fill="#FEFECE" filter="url(#f1c5ta7oa745hg)" rx="12" ry="12" style="stroke:#a80036;stroke-width:2"/><text x="307.5" y="84.995" fill="#000" font-family="sans-serif" font-size="14" lengthAdjust="spacingAndGlyphs" textLength="27">App</text><ellipse cx="324" cy="56" fill="#FEFECE" filter="url(#f1c5ta7oa745hg)" rx="12" ry="12" style="stroke:#a80036;stroke-width:2"/><polygon fill="#A80036" points="320 44 326 39 324 44 326 49 320 44" style="stroke:#a80036;stroke-width:1"/><text x="307.5" y="469.886" fill="#000" font-family="sans-serif" font-size="14" lengthAdjust="spacingAndGlyphs" textLength="27">App</text><ellipse cx="324" cy="489.188" fill="#FEFECE" filter="url(#f1c5ta7oa745hg)" rx="12" ry="12" style="stroke:#a80036;stroke-width:2"/><polygon fill="#A80036" points="320 477.188 326 472.188 324 477.188 326 482.188 320 477.188" style="stroke:#a80036;stroke-width:1"/><text x="518" y="84.995" fill="#000" font-family="sans-serif" font-size="14" lengthAdjust="spacingAndGlyphs" textLength="76">HomePage</text><ellipse cx="559" cy="56" fill="#FEFECE" filter="url(#f1c5ta7oa745hg)" rx="12" ry="12" style="stroke:#a80036;stroke-width:2"/><polygon fill="#A80036" points="555 44 561 39 559 44 561 49 555 44" style="stroke:#a80036;stroke-width:1"/><text x="518" y="469.886" fill="#000" font-family="sans-serif" font-size="14" lengthAdjust="spacingAndGlyphs" textLength="76">HomePage</text><ellipse cx="559" cy="489.188" fill="#FEFECE" filter="url(#f1c5ta7oa745hg)" rx="12" ry="12" style="stroke:#a80036;stroke-width:2"/><polygon fill="#A80036" points="555 477.188 561 472.188 559 477.188 561 482.188 555 477.188" style="stroke:#a80036;stroke-width:1"/><text x="832.5" y="84.995" fill="#000" font-family="sans-serif" font-size="14" lengthAdjust="spacingAndGlyphs" textLength="89">ShowLeague</text><ellipse cx="880" cy="56" fill="#FEFECE" filter="url(#f1c5ta7oa745hg)" rx="12" ry="12" style="stroke:#a80036;stroke-width:2"/><polygon fill="#A80036" points="876 44 882 39 880 44 882 49 876 44" style="stroke:#a80036;stroke-width:1"/><text x="832.5" y="469.886" fill="#000" font-family="sans-serif" font-size="14" lengthAdjust="spacingAndGlyphs" textLength="89">ShowLeague</text><ellipse cx="880" cy="489.188" fill="#FEFECE" filter="url(#f1c5ta7oa745hg)" rx="12" ry="12" style="stroke:#a80036;stroke-width:2"/><polygon fill="#A80036" points="876 477.188 882 472.188 880 477.188 882 482.188 876 477.188" style="stroke:#a80036;stroke-width:1"/><text x="937.5" y="84.995" fill="#000" font-family="sans-serif" font-size="14" lengthAdjust="spacingAndGlyphs" textLength="109">fetchLeaguesAll</text><ellipse cx="995" cy="56" fill="#FEFECE" filter="url(#f1c5ta7oa745hg)" rx="12" ry="12" style="stroke:#a80036;stroke-width:2"/><polygon fill="#A80036" points="991 44 997 39 995 44 997 49 991 44" style="stroke:#a80036;stroke-width:1"/><text x="937.5" y="469.886" fill="#000" font-family="sans-serif" font-size="14" lengthAdjust="spacingAndGlyphs" textLength="109">fetchLeaguesAll</text><ellipse cx="995" cy="489.188" fill="#FEFECE" filter="url(#f1c5ta7oa745hg)" rx="12" ry="12" style="stroke:#a80036;stroke-width:2"/><polygon fill="#A80036" points="991 477.188 997 472.188 995 477.188 997 482.188 991 477.188" style="stroke:#a80036;stroke-width:1"/><text x="1087" y="84.995" fill="#000" font-family="sans-serif" font-size="14" lengthAdjust="spacingAndGlyphs" textLength="36">store</text><path fill="#FEFECE" d="M1090,36 C1090,26 1108,26 1108,26 C1108,26 1126,26 1126,36 L1126,62 C1126,72 1108,72 1108,72 C1108,72 1090,72 1090,62 L1090,36" filter="url(#f1c5ta7oa745hg)" style="stroke:#000;stroke-width:1.5"/><path fill="none" d="M1090,36 C1090,46 1108,46 1108,46 C1108,46 1126,46 1126,36" style="stroke:#000;stroke-width:1.5"/><text x="1087" y="469.886" fill="#000" font-family="sans-serif" font-size="14" lengthAdjust="spacingAndGlyphs" textLength="36">store</text><path fill="#FEFECE" d="M1090,483.1875 C1090,473.1875 1108,473.1875 1108,473.1875 C1108,473.1875 1126,473.1875 1126,483.1875 L1126,509.1875 C1126,519.1875 1108,519.1875 1108,519.1875 C1108,519.1875 1090,519.1875 1090,509.1875 L1090,483.1875" filter="url(#f1c5ta7oa745hg)" style="stroke:#000;stroke-width:1.5"/><path fill="none" d="M1090,483.1875 C1090,493.1875 1108,493.1875 1108,493.1875 C1108,493.1875 1126,493.1875 1126,483.1875" style="stroke:#000;stroke-width:1.5"/><text x="1143.5" y="84.995" fill="#000" font-family="sans-serif" font-size="14" lengthAdjust="spacingAndGlyphs" textLength="21">API</text><path fill="#FEFECE" d="M1139,36 C1139,26 1157,26 1157,26 C1157,26 1175,26 1175,36 L1175,62 C1175,72 1157,72 1157,72 C1157,72 1139,72 1139,62 L1139,36" filter="url(#f1c5ta7oa745hg)" style="stroke:#000;stroke-width:1.5"/><path fill="none" d="M1139,36 C1139,46 1157,46 1157,46 C1157,46 1175,46 1175,36" style="stroke:#000;stroke-width:1.5"/><text x="1143.5" y="469.886" fill="#000" font-family="sans-serif" font-size="14" lengthAdjust="spacingAndGlyphs" textLength="21">API</text><path fill="#FEFECE" d="M1139,483.1875 C1139,473.1875 1157,473.1875 1157,473.1875 C1157,473.1875 1175,473.1875 1175,483.1875 L1175,509.1875 C1175,519.1875 1157,519.1875 1157,519.1875 C1157,519.1875 1139,519.1875 1139,509.1875 L1139,483.1875" filter="url(#f1c5ta7oa745hg)" style="stroke:#000;stroke-width:1.5"/><path fill="none" d="M1139,483.1875 C1139,493.1875 1157,493.1875 1157,493.1875 C1157,493.1875 1175,493.1875 1175,483.1875" style="stroke:#000;stroke-width:1.5"/><polygon fill="#A80036" points="111 115.43 121 119.43 111 123.43 115 119.43" style="stroke:#a80036;stroke-width:1"/><line style="stroke:#a80036;stroke-width:1" x1="24" x2="117" y1="119.43" y2="119.43"/><text x="31" y="114.364" fill="#000" font-family="sans-serif" font-size="13" lengthAdjust="spacingAndGlyphs" textLength="75">opens page</text><polygon fill="#A80036" points="312 144.563 322 148.563 312 152.563 316 148.563" style="stroke:#a80036;stroke-width:1"/><line style="stroke:#a80036;stroke-width:1" x1="123" x2="318" y1="148.563" y2="148.563"/><text x="130" y="143.497" fill="#000" font-family="sans-serif" font-size="13" lengthAdjust="spacingAndGlyphs" textLength="141">request HomePage UI</text><polygon fill="#A80036" points="547 173.695 557 177.695 547 181.695 551 177.695" style="stroke:#a80036;stroke-width:1"/><line style="stroke:#a80036;stroke-width:1" x1="324" x2="553" y1="177.695" y2="177.695"/><text x="331" y="172.629" fill="#000" font-family="sans-serif" font-size="13" lengthAdjust="spacingAndGlyphs" textLength="201">request HomePage component</text><polygon fill="#A80036" points="983 202.828 993 206.828 983 210.828 987 206.828" style="stroke:#a80036;stroke-width:1"/><line style="stroke:#a80036;stroke-width:1" x1="559" x2="989" y1="206.828" y2="206.828"/><text x="566" y="201.762" fill="#000" font-family="sans-serif" font-size="13" lengthAdjust="spacingAndGlyphs" textLength="131">dispatch API request</text><polygon fill="#A80036" points="1145 231.961 1155 235.961 1145 239.961 1149 235.961" style="stroke:#a80036;stroke-width:1"/><line style="stroke:#a80036;stroke-width:1" x1="995" x2="1151" y1="235.961" y2="235.961"/><text x="1002" y="230.895" fill="#000" font-family="sans-serif" font-size="13" lengthAdjust="spacingAndGlyphs" textLength="114">HTTP GET request</text><polygon fill="#A80036" points="1006 261.094 996 265.094 1006 269.094 1002 265.094" style="stroke:#a80036;stroke-width:1"/><line style="stroke:#a80036;stroke-width:1" x1="1000" x2="1156" y1="265.094" y2="265.094"/><text x="1012" y="260.028" fill="#000" font-family="sans-serif" font-size="13" lengthAdjust="spacingAndGlyphs" textLength="95">HTTP response</text><polygon fill="#A80036" points="1096 290.227 1106 294.227 1096 298.227 1100 294.227" style="stroke:#a80036;stroke-width:1"/><line style="stroke:#a80036;stroke-width:1" x1="995" x2="1102" y1="294.227" y2="294.227"/><text x="1002" y="289.161" fill="#000" font-family="sans-serif" font-size="13" lengthAdjust="spacingAndGlyphs" textLength="89">updates store</text><polygon fill="#A80036" points="570 319.359 560 323.359 570 327.359 566 323.359" style="stroke:#a80036;stroke-width:1"/><line style="stroke:#a80036;stroke-width:1" x1="564" x2="1107" y1="323.359" y2="323.359"/><text x="576" y="318.293" fill="#000" font-family="sans-serif" font-size="13" lengthAdjust="spacingAndGlyphs" textLength="173">allow access to information</text><polygon fill="#A80036" points="868 348.492 878 352.492 868 356.492 872 352.492" style="stroke:#a80036;stroke-width:1"/><line style="stroke:#a80036;stroke-width:1" x1="559" x2="874" y1="352.492" y2="352.492"/><text x="566" y="347.426" fill="#000" font-family="sans-serif" font-size="13" lengthAdjust="spacingAndGlyphs" textLength="297">send data of 1 league and request component</text><polygon fill="#A80036" points="570 377.625 560 381.625 570 385.625 566 381.625" style="stroke:#a80036;stroke-width:1"/><line style="stroke:#a80036;stroke-width:1" x1="564" x2="879" y1="381.625" y2="381.625"/><text x="576" y="376.559" fill="#000" font-family="sans-serif" font-size="13" lengthAdjust="spacingAndGlyphs" textLength="221">response ShowLeague component</text><polygon fill="#A80036" points="335 406.758 325 410.758 335 414.758 331 410.758" style="stroke:#a80036;stroke-width:1"/><line style="stroke:#a80036;stroke-width:1" x1="329" x2="558" y1="410.758" y2="410.758"/><text x="341" y="405.692" fill="#000" font-family="sans-serif" font-size="13" lengthAdjust="spacingAndGlyphs" textLength="211">response HomePage component</text><polygon fill="#A80036" points="134 435.891 124 439.891 134 443.891 130 439.891" style="stroke:#a80036;stroke-width:1"/><line style="stroke:#a80036;stroke-width:1" x1="128" x2="323" y1="439.891" y2="439.891"/><text x="140" y="434.825" fill="#000" font-family="sans-serif" font-size="13" lengthAdjust="spacingAndGlyphs" textLength="177">response HTML, CSS and JS</text></g></svg>