<?xml version="1.0" encoding="UTF-8" standalone="no"?><svg xmlns="http://www.w3.org/2000/svg" xmlns:xlink="http://www.w3.org/1999/xlink" contentScriptType="application/ecmascript" contentStyleType="text/css" height="542px" preserveAspectRatio="none" style="width:1182px;height:542px;" version="1.1" viewBox="0 0 1182 542" width="1182px" zoomAndPan="magnify"><defs><filter height="300%" id="f1c5ta7oa745hg" width="300%" x="-1" y="-1"><feGaussianBlur result="blurOut" stdDeviation="2.0"/><feColorMatrix in="blurOut" result="blurOut2" type="matrix" values="0 0 0 0 0 0 0 0 0 0 0 0 0 0 0 0 0 0 .4 0"/><feOffset dx="4.0" dy="4.0" in="blurOut2" result="blurOut3"/><feBlend in="SourceGraphic" in2="blurOut3" mode="normal"/></filter></defs><g><line style="stroke:#A80036;stroke-width:1.0;stroke-dasharray:5.0,5.0;" x1="24" x2="24" y1="88.2969" y2="457.8906"/><line style="stroke:#A80036;stroke-width:1.0;stroke-dasharray:5.0,5.0;" x1="122.5" x2="122.5" y1="88.2969" y2="457.8906"/><line style="stroke:#A80036;stroke-width:1.0;stroke-dasharray:5.0,5.0;" x1="323.5" x2="323.5" y1="88.2969" y2="457.8906"/><line style="stroke:#A80036;stroke-width:1.0;stroke-dasharray:5.0,5.0;" x1="559" x2="559" y1="88.2969" y2="457.8906"/><line style="stroke:#A80036;stroke-width:1.0;stroke-dasharray:5.0,5.0;" x1="879.5" x2="879.5" y1="88.2969" y2="457.8906"/><line style="stroke:#A80036;stroke-width:1.0;stroke-dasharray:5.0,5.0;" x1="994.5" x2="994.5" y1="88.2969" y2="457.8906"/><line style="stroke:#A80036;stroke-width:1.0;stroke-dasharray:5.0,5.0;" x1="1108" x2="1108" y1="88.2969" y2="457.8906"/><line style="stroke:#A80036;stroke-width:1.0;stroke-dasharray:5.0,5.0;" x1="1157" x2="1157" y1="88.2969" y2="457.8906"/><text fill="#000000" font-family="sans-serif" font-size="14" lengthAdjust="spacingAndGlyphs" textLength="32" x="5" y="84.9951">User</text><ellipse cx="24" cy="15" fill="#FEFECE" filter="url(#f1c5ta7oa745hg)" rx="8" ry="8" style="stroke:#A80036;stroke-width:2.0;"/><path d="M24,23 L24,50 M11,31 L37,31 M24,50 L11,65 M24,50 L37,65 " fill="none" filter="url(#f1c5ta7oa745hg)" style="stroke:#A80036;stroke-width:2.0;"/><text fill="#000000" font-family="sans-serif" font-size="14" lengthAdjust="spacingAndGlyphs" textLength="32" x="5" y="469.8857">User</text><ellipse cx="24" cy="483.1875" fill="#FEFECE" filter="url(#f1c5ta7oa745hg)" rx="8" ry="8" style="stroke:#A80036;stroke-width:2.0;"/><path d="M24,491.1875 L24,518.1875 M11,499.1875 L37,499.1875 M24,518.1875 L11,533.1875 M24,518.1875 L37,533.1875 " fill="none" filter="url(#f1c5ta7oa745hg)" style="stroke:#A80036;stroke-width:2.0;"/><text fill="#000000" font-family="sans-serif" font-size="14" lengthAdjust="spacingAndGlyphs" textLength="13" x="113.5" y="84.9951">UI</text><path d="M102.5,44 L102.5,68 M102.5,56 L119.5,56 " fill="none" filter="url(#f1c5ta7oa745hg)" style="stroke:#A80036;stroke-width:2.0;"/><ellipse cx="131.5" cy="56" fill="#FEFECE" filter="url(#f1c5ta7oa745hg)" rx="12" ry="12" style="stroke:#A80036;stroke-width:2.0;"/><text fill="#000000" font-family="sans-serif" font-size="14" lengthAdjust="spacingAndGlyphs" textLength="13" x="113.5" y="469.8857">UI</text><path d="M102.5,477.1875 L102.5,501.1875 M102.5,489.1875 L119.5,489.1875 " fill="none" filter="url(#f1c5ta7oa745hg)" style="stroke:#A80036;stroke-width:2.0;"/><ellipse cx="131.5" cy="489.1875" fill="#FEFECE" filter="url(#f1c5ta7oa745hg)" rx="12" ry="12" style="stroke:#A80036;stroke-width:2.0;"/><text fill="#000000" font-family="sans-serif" font-size="14" lengthAdjust="spacingAndGlyphs" textLength="27" x="307.5" y="84.9951">App</text><ellipse cx="324" cy="56" fill="#FEFECE" filter="url(#f1c5ta7oa745hg)" rx="12" ry="12" style="stroke:#A80036;stroke-width:2.0;"/><polygon fill="#A80036" points="320,44,326,39,324,44,326,49,320,44" style="stroke:#A80036;stroke-width:1.0;"/><text fill="#000000" font-family="sans-serif" font-size="14" lengthAdjust="spacingAndGlyphs" textLength="27" x="307.5" y="469.8857">App</text><ellipse cx="324" cy="489.1875" fill="#FEFECE" filter="url(#f1c5ta7oa745hg)" rx="12" ry="12" style="stroke:#A80036;stroke-width:2.0;"/><polygon fill="#A80036" points="320,477.1875,326,472.1875,324,477.1875,326,482.1875,320,477.1875" style="stroke:#A80036;stroke-width:1.0;"/><text fill="#000000" font-family="sans-serif" font-size="14" lengthAdjust="spacingAndGlyphs" textLength="76" x="518" y="84.9951">HomePage</text><ellipse cx="559" cy="56" fill="#FEFECE" filter="url(#f1c5ta7oa745hg)" rx="12" ry="12" style="stroke:#A80036;stroke-width:2.0;"/><polygon fill="#A80036" points="555,44,561,39,559,44,561,49,555,44" style="stroke:#A80036;stroke-width:1.0;"/><text fill="#000000" font-family="sans-serif" font-size="14" lengthAdjust="spacingAndGlyphs" textLength="76" x="518" y="469.8857">HomePage</text><ellipse cx="559" cy="489.1875" fill="#FEFECE" filter="url(#f1c5ta7oa745hg)" rx="12" ry="12" style="stroke:#A80036;stroke-width:2.0;"/><polygon fill="#A80036" points="555,477.1875,561,472.1875,559,477.1875,561,482.1875,555,477.1875" style="stroke:#A80036;stroke-width:1.0;"/><text fill="#000000" font-family="sans-serif" font-size="14" lengthAdjust="spacingAndGlyphs" textLength="89" x="832.5" y="84.9951">ShowLeague</text><ellipse cx="880" cy="56" fill="#FEFECE" filter="url(#f1c5ta7oa745hg)" rx="12" ry="12" style="stroke:#A80036;stroke-width:2.0;"/><polygon fill="#A80036" points="876,44,882,39,880,44,882,49,876,44" style="stroke:#A80036;stroke-width:1.0;"/><text fill="#000000" font-family="sans-serif" font-size="14" lengthAdjust="spacingAndGlyphs" textLength="89" x="832.5" y="469.8857">ShowLeague</text><ellipse cx="880" cy="489.1875" fill="#FEFECE" filter="url(#f1c5ta7oa745hg)" rx="12" ry="12" style="stroke:#A80036;stroke-width:2.0;"/><polygon fill="#A80036" points="876,477.1875,882,472.1875,880,477.1875,882,482.1875,876,477.1875" style="stroke:#A80036;stroke-width:1.0;"/><text fill="#000000" font-family="sans-serif" font-size="14" lengthAdjust="spacingAndGlyphs" textLength="109" x="937.5" y="84.9951">fetchLeaguesAll</text><ellipse cx="995" cy="56" fill="#FEFECE" filter="url(#f1c5ta7oa745hg)" rx="12" ry="12" style="stroke:#A80036;stroke-width:2.0;"/><polygon fill="#A80036" points="991,44,997,39,995,44,997,49,991,44" style="stroke:#A80036;stroke-width:1.0;"/><text fill="#000000" font-family="sans-serif" font-size="14" lengthAdjust="spacingAndGlyphs" textLength="109" x="937.5" y="469.8857">fetchLeaguesAll</text><ellipse cx="995" cy="489.1875" fill="#FEFECE" filter="url(#f1c5ta7oa745hg)" rx="12" ry="12" style="stroke:#A80036;stroke-width:2.0;"/><polygon fill="#A80036" points="991,477.1875,997,472.1875,995,477.1875,997,482.1875,991,477.1875" style="stroke:#A80036;stroke-width:1.0;"/><text fill="#000000" font-family="sans-serif" font-size="14" lengthAdjust="spacingAndGlyphs" textLength="36" x="1087" y="84.9951">store</text><path d="M1090,36 C1090,26 1108,26 1108,26 C1108,26 1126,26 1126,36 L1126,62 C1126,72 1108,72 1108,72 C1108,72 1090,72 1090,62 L1090,36 " fill="#FEFECE" filter="url(#f1c5ta7oa745hg)" style="stroke:#000000;stroke-width:1.5;"/><path d="M1090,36 C1090,46 1108,46 1108,46 C1108,46 1126,46 1126,36 " fill="none" style="stroke:#000000;stroke-width:1.5;"/><text fill="#000000" font-family="sans-serif" font-size="14" lengthAdjust="spacingAndGlyphs" textLength="36" x="1087" y="469.8857">store</text><path d="M1090,483.1875 C1090,473.1875 1108,473.1875 1108,473.1875 C1108,473.1875 1126,473.1875 1126,483.1875 L1126,509.1875 C1126,519.1875 1108,519.1875 1108,519.1875 C1108,519.1875 1090,519.1875 1090,509.1875 L1090,483.1875 " fill="#FEFECE" filter="url(#f1c5ta7oa745hg)" style="stroke:#000000;stroke-width:1.5;"/><path d="M1090,483.1875 C1090,493.1875 1108,493.1875 1108,493.1875 C1108,493.1875 1126,493.1875 1126,483.1875 " fill="none" style="stroke:#000000;stroke-width:1.5;"/><text fill="#000000" font-family="sans-serif" font-size="14" lengthAdjust="spacingAndGlyphs" textLength="21" x="1143.5" y="84.9951">API</text><path d="M1139,36 C1139,26 1157,26 1157,26 C1157,26 1175,26 1175,36 L1175,62 C1175,72 1157,72 1157,72 C1157,72 1139,72 1139,62 L1139,36 " fill="#FEFECE" filter="url(#f1c5ta7oa745hg)" style="stroke:#000000;stroke-width:1.5;"/><path d="M1139,36 C1139,46 1157,46 1157,46 C1157,46 1175,46 1175,36 " fill="none" style="stroke:#000000;stroke-width:1.5;"/><text fill="#000000" font-family="sans-serif" font-size="14" lengthAdjust="spacingAndGlyphs" textLength="21" x="1143.5" y="469.8857">API</text><path d="M1139,483.1875 C1139,473.1875 1157,473.1875 1157,473.1875 C1157,473.1875 1175,473.1875 1175,483.1875 L1175,509.1875 C1175,519.1875 1157,519.1875 1157,519.1875 C1157,519.1875 1139,519.1875 1139,509.1875 L1139,483.1875 " fill="#FEFECE" filter="url(#f1c5ta7oa745hg)" style="stroke:#000000;stroke-width:1.5;"/><path d="M1139,483.1875 C1139,493.1875 1157,493.1875 1157,493.1875 C1157,493.1875 1175,493.1875 1175,483.1875 " fill="none" style="stroke:#000000;stroke-width:1.5;"/><polygon fill="#A80036" points="111,115.4297,121,119.4297,111,123.4297,115,119.4297" style="stroke:#A80036;stroke-width:1.0;"/><line style="stroke:#A80036;stroke-width:1.0;" x1="24" x2="117" y1="119.4297" y2="119.4297"/><text fill="#000000" font-family="sans-serif" font-size="13" lengthAdjust="spacingAndGlyphs" textLength="75" x="31" y="114.3638">opens page</text><polygon fill="#A80036" points="312,144.5625,322,148.5625,312,152.5625,316,148.5625" style="stroke:#A80036;stroke-width:1.0;"/><line style="stroke:#A80036;stroke-width:1.0;" x1="123" x2="318" y1="148.5625" y2="148.5625"/><text fill="#000000" font-family="sans-serif" font-size="13" lengthAdjust="spacingAndGlyphs" textLength="141" x="130" y="143.4966">request HomePage UI</text><polygon fill="#A80036" points="547,173.6953,557,177.6953,547,181.6953,551,177.6953" style="stroke:#A80036;stroke-width:1.0;"/><line style="stroke:#A80036;stroke-width:1.0;" x1="324" x2="553" y1="177.6953" y2="177.6953"/><text fill="#000000" font-family="sans-serif" font-size="13" lengthAdjust="spacingAndGlyphs" textLength="201" x="331" y="172.6294">request HomePage component</text><polygon fill="#A80036" points="983,202.8281,993,206.8281,983,210.8281,987,206.8281" style="stroke:#A80036;stroke-width:1.0;"/><line style="stroke:#A80036;stroke-width:1.0;" x1="559" x2="989" y1="206.8281" y2="206.8281"/><text fill="#000000" font-family="sans-serif" font-size="13" lengthAdjust="spacingAndGlyphs" textLength="131" x="566" y="201.7622">dispatch API request</text><polygon fill="#A80036" points="1145,231.9609,1155,235.9609,1145,239.9609,1149,235.9609" style="stroke:#A80036;stroke-width:1.0;"/><line style="stroke:#A80036;stroke-width:1.0;" x1="995" x2="1151" y1="235.9609" y2="235.9609"/><text fill="#000000" font-family="sans-serif" font-size="13" lengthAdjust="spacingAndGlyphs" textLength="114" x="1002" y="230.895">HTTP GET request</text><polygon fill="#A80036" points="1006,261.0938,996,265.0938,1006,269.0938,1002,265.0938" style="stroke:#A80036;stroke-width:1.0;"/><line style="stroke:#A80036;stroke-width:1.0;" x1="1000" x2="1156" y1="265.0938" y2="265.0938"/><text fill="#000000" font-family="sans-serif" font-size="13" lengthAdjust="spacingAndGlyphs" textLength="95" x="1012" y="260.0278">HTTP response</text><polygon fill="#A80036" points="1096,290.2266,1106,294.2266,1096,298.2266,1100,294.2266" style="stroke:#A80036;stroke-width:1.0;"/><line style="stroke:#A80036;stroke-width:1.0;" x1="995" x2="1102" y1="294.2266" y2="294.2266"/><text fill="#000000" font-family="sans-serif" font-size="13" lengthAdjust="spacingAndGlyphs" textLength="89" x="1002" y="289.1606">updates store</text><polygon fill="#A80036" points="570,319.3594,560,323.3594,570,327.3594,566,323.3594" style="stroke:#A80036;stroke-width:1.0;"/><line style="stroke:#A80036;stroke-width:1.0;" x1="564" x2="1107" y1="323.3594" y2="323.3594"/><text fill="#000000" font-family="sans-serif" font-size="13" lengthAdjust="spacingAndGlyphs" textLength="173" x="576" y="318.2935">allow access to information</text><polygon fill="#A80036" points="868,348.4922,878,352.4922,868,356.4922,872,352.4922" style="stroke:#A80036;stroke-width:1.0;"/><line style="stroke:#A80036;stroke-width:1.0;" x1="559" x2="874" y1="352.4922" y2="352.4922"/><text fill="#000000" font-family="sans-serif" font-size="13" lengthAdjust="spacingAndGlyphs" textLength="297" x="566" y="347.4263">send data of 1 league and request component</text><polygon fill="#A80036" points="570,377.625,560,381.625,570,385.625,566,381.625" style="stroke:#A80036;stroke-width:1.0;"/><line style="stroke:#A80036;stroke-width:1.0;" x1="564" x2="879" y1="381.625" y2="381.625"/><text fill="#000000" font-family="sans-serif" font-size="13" lengthAdjust="spacingAndGlyphs" textLength="221" x="576" y="376.5591">response ShowLeague component</text><polygon fill="#A80036" points="335,406.7578,325,410.7578,335,414.7578,331,410.7578" style="stroke:#A80036;stroke-width:1.0;"/><line style="stroke:#A80036;stroke-width:1.0;" x1="329" x2="558" y1="410.7578" y2="410.7578"/><text fill="#000000" font-family="sans-serif" font-size="13" lengthAdjust="spacingAndGlyphs" textLength="211" x="341" y="405.6919">response HomePage component</text><polygon fill="#A80036" points="134,435.8906,124,439.8906,134,443.8906,130,439.8906" style="stroke:#A80036;stroke-width:1.0;"/><line style="stroke:#A80036;stroke-width:1.0;" x1="128" x2="323" y1="439.8906" y2="439.8906"/><text fill="#000000" font-family="sans-serif" font-size="13" lengthAdjust="spacingAndGlyphs" textLength="177" x="140" y="434.8247">response HTML, CSS and JS</text><!--MD5=[9e434e50c094b9f8826f1b120414bdd4]
@startuml

actor User
boundary UI
control App
control HomePage
control ShowLeague
control fetchLeaguesAll
database store
database API

User -> UI : opens page
UI -> App: request HomePage UI
App -> HomePage: request HomePage component
HomePage-> fetchLeaguesAll: dispatch API request 
fetchLeaguesAll -> API: HTTP GET request
API -> fetchLeaguesAll : HTTP response
fetchLeaguesAll -> store: updates store
store -> HomePage : allow access to information
HomePage -> ShowLeague : send data of 1 league and request component
ShowLeague -> HomePage: response ShowLeague component
HomePage -> App: response HomePage component
App -> UI: response HTML, CSS and JS
@enduml

PlantUML version 1.2020.22(Sun Dec 06 09:36:27 WET 2020)
(GPL source distribution)
Java Runtime: OpenJDK Runtime Environment
JVM: OpenJDK 64-Bit Server VM
Default Encoding: UTF-8
Language: en
Country: null
--></g></svg>