<?xml version="1.0" encoding="UTF-8" standalone="no"?><svg xmlns="http://www.w3.org/2000/svg" xmlns:xlink="http://www.w3.org/1999/xlink" contentScriptType="application/ecmascript" contentStyleType="text/css" height="542px" preserveAspectRatio="none" style="width:1130px;height:542px;" version="1.1" viewBox="0 0 1130 542" width="1130px" zoomAndPan="magnify"><defs><filter height="300%" id="fg5e5jrtzd276" width="300%" x="-1" y="-1"><feGaussianBlur result="blurOut" stdDeviation="2.0"/><feColorMatrix in="blurOut" result="blurOut2" type="matrix" values="0 0 0 0 0 0 0 0 0 0 0 0 0 0 0 0 0 0 .4 0"/><feOffset dx="4.0" dy="4.0" in="blurOut2" result="blurOut3"/><feBlend in="SourceGraphic" in2="blurOut3" mode="normal"/></filter></defs><g><line style="stroke:#A80036;stroke-width:1.0;stroke-dasharray:5.0,5.0;" x1="24" x2="24" y1="88.2969" y2="457.8906"/><line style="stroke:#A80036;stroke-width:1.0;stroke-dasharray:5.0,5.0;" x1="122.5" x2="122.5" y1="88.2969" y2="457.8906"/><line style="stroke:#A80036;stroke-width:1.0;stroke-dasharray:5.0,5.0;" x1="323.5" x2="323.5" y1="88.2969" y2="457.8906"/><line style="stroke:#A80036;stroke-width:1.0;stroke-dasharray:5.0,5.0;" x1="534.5" x2="534.5" y1="88.2969" y2="457.8906"/><line style="stroke:#A80036;stroke-width:1.0;stroke-dasharray:5.0,5.0;" x1="855.5" x2="855.5" y1="88.2969" y2="457.8906"/><line style="stroke:#A80036;stroke-width:1.0;stroke-dasharray:5.0,5.0;" x1="943.5" x2="943.5" y1="88.2969" y2="457.8906"/><line style="stroke:#A80036;stroke-width:1.0;stroke-dasharray:5.0,5.0;" x1="1056.5" x2="1056.5" y1="88.2969" y2="457.8906"/><line style="stroke:#A80036;stroke-width:1.0;stroke-dasharray:5.0,5.0;" x1="1105.5" x2="1105.5" y1="88.2969" y2="457.8906"/><text fill="#000000" font-family="sans-serif" font-size="14" lengthAdjust="spacingAndGlyphs" textLength="32" x="5" y="84.9951">User</text><ellipse cx="24" cy="15" fill="#FEFECE" filter="url(#fg5e5jrtzd276)" rx="8" ry="8" style="stroke:#A80036;stroke-width:2.0;"/><path d="M24,23 L24,50 M11,31 L37,31 M24,50 L11,65 M24,50 L37,65 " fill="none" filter="url(#fg5e5jrtzd276)" style="stroke:#A80036;stroke-width:2.0;"/><text fill="#000000" font-family="sans-serif" font-size="14" lengthAdjust="spacingAndGlyphs" textLength="32" x="5" y="469.8857">User</text><ellipse cx="24" cy="483.1875" fill="#FEFECE" filter="url(#fg5e5jrtzd276)" rx="8" ry="8" style="stroke:#A80036;stroke-width:2.0;"/><path d="M24,491.1875 L24,518.1875 M11,499.1875 L37,499.1875 M24,518.1875 L11,533.1875 M24,518.1875 L37,533.1875 " fill="none" filter="url(#fg5e5jrtzd276)" style="stroke:#A80036;stroke-width:2.0;"/><text fill="#000000" font-family="sans-serif" font-size="14" lengthAdjust="spacingAndGlyphs" textLength="13" x="113.5" y="84.9951">UI</text><path d="M102.5,44 L102.5,68 M102.5,56 L119.5,56 " fill="none" filter="url(#fg5e5jrtzd276)" style="stroke:#A80036;stroke-width:2.0;"/><ellipse cx="131.5" cy="56" fill="#FEFECE" filter="url(#fg5e5jrtzd276)" rx="12" ry="12" style="stroke:#A80036;stroke-width:2.0;"/><text fill="#000000" font-family="sans-serif" font-size="14" lengthAdjust="spacingAndGlyphs" textLength="13" x="113.5" y="469.8857">UI</text><path d="M102.5,477.1875 L102.5,501.1875 M102.5,489.1875 L119.5,489.1875 " fill="none" filter="url(#fg5e5jrtzd276)" style="stroke:#A80036;stroke-width:2.0;"/><ellipse cx="131.5" cy="489.1875" fill="#FEFECE" filter="url(#fg5e5jrtzd276)" rx="12" ry="12" style="stroke:#A80036;stroke-width:2.0;"/><text fill="#000000" font-family="sans-serif" font-size="14" lengthAdjust="spacingAndGlyphs" textLength="27" x="307.5" y="84.9951">App</text><ellipse cx="324" cy="56" fill="#FEFECE" filter="url(#fg5e5jrtzd276)" rx="12" ry="12" style="stroke:#A80036;stroke-width:2.0;"/><polygon fill="#A80036" points="320,44,326,39,324,44,326,49,320,44" style="stroke:#A80036;stroke-width:1.0;"/><text fill="#000000" font-family="sans-serif" font-size="14" lengthAdjust="spacingAndGlyphs" textLength="27" x="307.5" y="469.8857">App</text><ellipse cx="324" cy="489.1875" fill="#FEFECE" filter="url(#fg5e5jrtzd276)" rx="12" ry="12" style="stroke:#A80036;stroke-width:2.0;"/><polygon fill="#A80036" points="320,477.1875,326,472.1875,324,477.1875,326,482.1875,320,477.1875" style="stroke:#A80036;stroke-width:1.0;"/><text fill="#000000" font-family="sans-serif" font-size="14" lengthAdjust="spacingAndGlyphs" textLength="51" x="506.5" y="84.9951">League</text><ellipse cx="535" cy="56" fill="#FEFECE" filter="url(#fg5e5jrtzd276)" rx="12" ry="12" style="stroke:#A80036;stroke-width:2.0;"/><polygon fill="#A80036" points="531,44,537,39,535,44,537,49,531,44" style="stroke:#A80036;stroke-width:1.0;"/><text fill="#000000" font-family="sans-serif" font-size="14" lengthAdjust="spacingAndGlyphs" textLength="51" x="506.5" y="469.8857">League</text><ellipse cx="535" cy="489.1875" fill="#FEFECE" filter="url(#fg5e5jrtzd276)" rx="12" ry="12" style="stroke:#A80036;stroke-width:2.0;"/><polygon fill="#A80036" points="531,477.1875,537,472.1875,535,477.1875,537,482.1875,531,477.1875" style="stroke:#A80036;stroke-width:1.0;"/><text fill="#000000" font-family="sans-serif" font-size="14" lengthAdjust="spacingAndGlyphs" textLength="69" x="818.5" y="84.9951">ShowClub</text><ellipse cx="856" cy="56" fill="#FEFECE" filter="url(#fg5e5jrtzd276)" rx="12" ry="12" style="stroke:#A80036;stroke-width:2.0;"/><polygon fill="#A80036" points="852,44,858,39,856,44,858,49,852,44" style="stroke:#A80036;stroke-width:1.0;"/><text fill="#000000" font-family="sans-serif" font-size="14" lengthAdjust="spacingAndGlyphs" textLength="69" x="818.5" y="469.8857">ShowClub</text><ellipse cx="856" cy="489.1875" fill="#FEFECE" filter="url(#fg5e5jrtzd276)" rx="12" ry="12" style="stroke:#A80036;stroke-width:2.0;"/><polygon fill="#A80036" points="852,477.1875,858,472.1875,856,477.1875,858,482.1875,852,477.1875" style="stroke:#A80036;stroke-width:1.0;"/><text fill="#000000" font-family="sans-serif" font-size="14" lengthAdjust="spacingAndGlyphs" textLength="74" x="903.5" y="84.9951">fetchClubs</text><ellipse cx="943.5" cy="56" fill="#FEFECE" filter="url(#fg5e5jrtzd276)" rx="12" ry="12" style="stroke:#A80036;stroke-width:2.0;"/><polygon fill="#A80036" points="939.5,44,945.5,39,943.5,44,945.5,49,939.5,44" style="stroke:#A80036;stroke-width:1.0;"/><text fill="#000000" font-family="sans-serif" font-size="14" lengthAdjust="spacingAndGlyphs" textLength="74" x="903.5" y="469.8857">fetchClubs</text><ellipse cx="943.5" cy="489.1875" fill="#FEFECE" filter="url(#fg5e5jrtzd276)" rx="12" ry="12" style="stroke:#A80036;stroke-width:2.0;"/><polygon fill="#A80036" points="939.5,477.1875,945.5,472.1875,943.5,477.1875,945.5,482.1875,939.5,477.1875" style="stroke:#A80036;stroke-width:1.0;"/><text fill="#000000" font-family="sans-serif" font-size="14" lengthAdjust="spacingAndGlyphs" textLength="36" x="1035.5" y="84.9951">store</text><path d="M1038.5,36 C1038.5,26 1056.5,26 1056.5,26 C1056.5,26 1074.5,26 1074.5,36 L1074.5,62 C1074.5,72 1056.5,72 1056.5,72 C1056.5,72 1038.5,72 1038.5,62 L1038.5,36 " fill="#FEFECE" filter="url(#fg5e5jrtzd276)" style="stroke:#000000;stroke-width:1.5;"/><path d="M1038.5,36 C1038.5,46 1056.5,46 1056.5,46 C1056.5,46 1074.5,46 1074.5,36 " fill="none" style="stroke:#000000;stroke-width:1.5;"/><text fill="#000000" font-family="sans-serif" font-size="14" lengthAdjust="spacingAndGlyphs" textLength="36" x="1035.5" y="469.8857">store</text><path d="M1038.5,483.1875 C1038.5,473.1875 1056.5,473.1875 1056.5,473.1875 C1056.5,473.1875 1074.5,473.1875 1074.5,483.1875 L1074.5,509.1875 C1074.5,519.1875 1056.5,519.1875 1056.5,519.1875 C1056.5,519.1875 1038.5,519.1875 1038.5,509.1875 L1038.5,483.1875 " fill="#FEFECE" filter="url(#fg5e5jrtzd276)" style="stroke:#000000;stroke-width:1.5;"/><path d="M1038.5,483.1875 C1038.5,493.1875 1056.5,493.1875 1056.5,493.1875 C1056.5,493.1875 1074.5,493.1875 1074.5,483.1875 " fill="none" style="stroke:#000000;stroke-width:1.5;"/><text fill="#000000" font-family="sans-serif" font-size="14" lengthAdjust="spacingAndGlyphs" textLength="21" x="1092" y="84.9951">API</text><path d="M1087.5,36 C1087.5,26 1105.5,26 1105.5,26 C1105.5,26 1123.5,26 1123.5,36 L1123.5,62 C1123.5,72 1105.5,72 1105.5,72 C1105.5,72 1087.5,72 1087.5,62 L1087.5,36 " fill="#FEFECE" filter="url(#fg5e5jrtzd276)" style="stroke:#000000;stroke-width:1.5;"/><path d="M1087.5,36 C1087.5,46 1105.5,46 1105.5,46 C1105.5,46 1123.5,46 1123.5,36 " fill="none" style="stroke:#000000;stroke-width:1.5;"/><text fill="#000000" font-family="sans-serif" font-size="14" lengthAdjust="spacingAndGlyphs" textLength="21" x="1092" y="469.8857">API</text><path d="M1087.5,483.1875 C1087.5,473.1875 1105.5,473.1875 1105.5,473.1875 C1105.5,473.1875 1123.5,473.1875 1123.5,483.1875 L1123.5,509.1875 C1123.5,519.1875 1105.5,519.1875 1105.5,519.1875 C1105.5,519.1875 1087.5,519.1875 1087.5,509.1875 L1087.5,483.1875 " fill="#FEFECE" filter="url(#fg5e5jrtzd276)" style="stroke:#000000;stroke-width:1.5;"/><path d="M1087.5,483.1875 C1087.5,493.1875 1105.5,493.1875 1105.5,493.1875 C1105.5,493.1875 1123.5,493.1875 1123.5,483.1875 " fill="none" style="stroke:#000000;stroke-width:1.5;"/><polygon fill="#A80036" points="111,115.4297,121,119.4297,111,123.4297,115,119.4297" style="stroke:#A80036;stroke-width:1.0;"/><line style="stroke:#A80036;stroke-width:1.0;" x1="24" x2="117" y1="119.4297" y2="119.4297"/><text fill="#000000" font-family="sans-serif" font-size="13" lengthAdjust="spacingAndGlyphs" textLength="75" x="31" y="114.3638">opens page</text><polygon fill="#A80036" points="312,144.5625,322,148.5625,312,152.5625,316,148.5625" style="stroke:#A80036;stroke-width:1.0;"/><line style="stroke:#A80036;stroke-width:1.0;" x1="123" x2="318" y1="148.5625" y2="148.5625"/><text fill="#000000" font-family="sans-serif" font-size="13" lengthAdjust="spacingAndGlyphs" textLength="117" x="130" y="143.4966">request League UI</text><polygon fill="#A80036" points="523,173.6953,533,177.6953,523,181.6953,527,177.6953" style="stroke:#A80036;stroke-width:1.0;"/><line style="stroke:#A80036;stroke-width:1.0;" x1="324" x2="529" y1="177.6953" y2="177.6953"/><text fill="#000000" font-family="sans-serif" font-size="13" lengthAdjust="spacingAndGlyphs" textLength="177" x="331" y="172.6294">request League component</text><polygon fill="#A80036" points="931.5,202.8281,941.5,206.8281,931.5,210.8281,935.5,206.8281" style="stroke:#A80036;stroke-width:1.0;"/><line style="stroke:#A80036;stroke-width:1.0;" x1="535" x2="937.5" y1="206.8281" y2="206.8281"/><text fill="#000000" font-family="sans-serif" font-size="13" lengthAdjust="spacingAndGlyphs" textLength="131" x="542" y="201.7622">dispatch API request</text><polygon fill="#A80036" points="1093.5,231.9609,1103.5,235.9609,1093.5,239.9609,1097.5,235.9609" style="stroke:#A80036;stroke-width:1.0;"/><line style="stroke:#A80036;stroke-width:1.0;" x1="943.5" x2="1099.5" y1="235.9609" y2="235.9609"/><text fill="#000000" font-family="sans-serif" font-size="13" lengthAdjust="spacingAndGlyphs" textLength="114" x="950.5" y="230.895">HTTP GET request</text><polygon fill="#A80036" points="954.5,261.0938,944.5,265.0938,954.5,269.0938,950.5,265.0938" style="stroke:#A80036;stroke-width:1.0;"/><line style="stroke:#A80036;stroke-width:1.0;" x1="948.5" x2="1104.5" y1="265.0938" y2="265.0938"/><text fill="#000000" font-family="sans-serif" font-size="13" lengthAdjust="spacingAndGlyphs" textLength="95" x="960.5" y="260.0278">HTTP response</text><polygon fill="#A80036" points="1044.5,290.2266,1054.5,294.2266,1044.5,298.2266,1048.5,294.2266" style="stroke:#A80036;stroke-width:1.0;"/><line style="stroke:#A80036;stroke-width:1.0;" x1="943.5" x2="1050.5" y1="294.2266" y2="294.2266"/><text fill="#000000" font-family="sans-serif" font-size="13" lengthAdjust="spacingAndGlyphs" textLength="89" x="950.5" y="289.1606">updates store</text><polygon fill="#A80036" points="546,319.3594,536,323.3594,546,327.3594,542,323.3594" style="stroke:#A80036;stroke-width:1.0;"/><line style="stroke:#A80036;stroke-width:1.0;" x1="540" x2="1055.5" y1="323.3594" y2="323.3594"/><text fill="#000000" font-family="sans-serif" font-size="13" lengthAdjust="spacingAndGlyphs" textLength="173" x="552" y="318.2935">allow access to information</text><polygon fill="#A80036" points="844,348.4922,854,352.4922,844,356.4922,848,352.4922" style="stroke:#A80036;stroke-width:1.0;"/><line style="stroke:#A80036;stroke-width:1.0;" x1="535" x2="850" y1="352.4922" y2="352.4922"/><text fill="#000000" font-family="sans-serif" font-size="13" lengthAdjust="spacingAndGlyphs" textLength="297" x="542" y="347.4263">send data of 1 league and request component</text><polygon fill="#A80036" points="546,377.625,536,381.625,546,385.625,542,381.625" style="stroke:#A80036;stroke-width:1.0;"/><line style="stroke:#A80036;stroke-width:1.0;" x1="540" x2="855" y1="381.625" y2="381.625"/><text fill="#000000" font-family="sans-serif" font-size="13" lengthAdjust="spacingAndGlyphs" textLength="202" x="552" y="376.5591">response ShowClub component</text><polygon fill="#A80036" points="335,406.7578,325,410.7578,335,414.7578,331,410.7578" style="stroke:#A80036;stroke-width:1.0;"/><line style="stroke:#A80036;stroke-width:1.0;" x1="329" x2="534" y1="410.7578" y2="410.7578"/><text fill="#000000" font-family="sans-serif" font-size="13" lengthAdjust="spacingAndGlyphs" textLength="187" x="341" y="405.6919">response League component</text><polygon fill="#A80036" points="134,435.8906,124,439.8906,134,443.8906,130,439.8906" style="stroke:#A80036;stroke-width:1.0;"/><line style="stroke:#A80036;stroke-width:1.0;" x1="128" x2="323" y1="439.8906" y2="439.8906"/><text fill="#000000" font-family="sans-serif" font-size="13" lengthAdjust="spacingAndGlyphs" textLength="177" x="140" y="434.8247">response HTML, CSS and JS</text><!--MD5=[5785c4ecee526bdc4e37aea9cc9e5ee6]
@startuml

actor User
boundary UI
control App
control League
control ShowClub
control fetchClubs
database store
database API

User -> UI : opens page
UI -> App: request League UI
App -> League: request League component
League-> fetchClubs: dispatch API request 
fetchClubs -> API: HTTP GET request
API -> fetchClubs : HTTP response
fetchClubs -> store: updates store
store -> League : allow access to information
League -> ShowClub : send data of 1 league and request component
ShowClub -> League: response ShowClub component
League -> App: response League component
App -> UI: response HTML, CSS and JS
@enduml

PlantUML version 1.2020.22(Sun Dec 06 09:36:27 WET 2020)
(GPL source distribution)
Java Runtime: OpenJDK Runtime Environment
JVM: OpenJDK 64-Bit Server VM
Default Encoding: UTF-8
Language: en
Country: null
--></g></svg>