<svg xmlns="http://www.w3.org/2000/svg" xmlns:xlink="http://www.w3.org/1999/xlink" width="1130" height="542" contentScriptType="application/ecmascript" contentStyleType="text/css" style="width:1130px;height:542px" preserveAspectRatio="none" version="1.1" viewBox="0 0 1130 542" zoomAndPan="magnify"><defs><filter id="fg5e5jrtzd276" width="300%" height="300%" x="-1" y="-1"><feGaussianBlur result="blurOut" stdDeviation="2"/><feColorMatrix in="blurOut" result="blurOut2" type="matrix" values="0 0 0 0 0 0 0 0 0 0 0 0 0 0 0 0 0 0 .4 0"/><feOffset dx="4" dy="4" in="blurOut2" result="blurOut3"/><feBlend in="SourceGraphic" in2="blurOut3" mode="normal"/></filter></defs><g><line style="stroke:#a80036;stroke-width:1;stroke-dasharray:5,5" x1="24" x2="24" y1="88.297" y2="457.891"/><line style="stroke:#a80036;stroke-width:1;stroke-dasharray:5,5" x1="122.5" x2="122.5" y1="88.297" y2="457.891"/><line style="stroke:#a80036;stroke-width:1;stroke-dasharray:5,5" x1="323.5" x2="323.5" y1="88.297" y2="457.891"/><line style="stroke:#a80036;stroke-width:1;stroke-dasharray:5,5" x1="534.5" x2="534.5" y1="88.297" y2="457.891"/><line style="stroke:#a80036;stroke-width:1;stroke-dasharray:5,5" x1="855.5" x2="855.5" y1="88.297" y2="457.891"/><line style="stroke:#a80036;stroke-width:1;stroke-dasharray:5,5" x1="943.5" x2="943.5" y1="88.297" y2="457.891"/><line style="stroke:#a80036;stroke-width:1;stroke-dasharray:5,5" x1="1056.5" x2="1056.5" y1="88.297" y2="457.891"/><line style="stroke:#a80036;stroke-width:1;stroke-dasharray:5,5" x1="1105.5" x2="1105.5" y1="88.297" y2="457.891"/><text x="5" y="84.995" fill="#000" font-family="sans-serif" font-size="14" lengthAdjust="spacingAndGlyphs" textLength="32">User</text><ellipse cx="24" cy="15" fill="#FEFECE" filter="url(#fg5e5jrtzd276)" rx="8" ry="8" style="stroke:#a80036;stroke-width:2"/><path fill="none" d="M24,23 L24,50 M11,31 L37,31 M24,50 L11,65 M24,50 L37,65" filter="url(#fg5e5jrtzd276)" style="stroke:#a80036;stroke-width:2"/><text x="5" y="469.886" fill="#000" font-family="sans-serif" font-size="14" lengthAdjust="spacingAndGlyphs" textLength="32">User</text><ellipse cx="24" cy="483.188" fill="#FEFECE" filter="url(#fg5e5jrtzd276)" rx="8" ry="8" style="stroke:#a80036;stroke-width:2"/><path fill="none" d="M24,491.1875 L24,518.1875 M11,499.1875 L37,499.1875 M24,518.1875 L11,533.1875 M24,518.1875 L37,533.1875" filter="url(#fg5e5jrtzd276)" style="stroke:#a80036;stroke-width:2"/><text x="113.5" y="84.995" fill="#000" font-family="sans-serif" font-size="14" lengthAdjust="spacingAndGlyphs" textLength="13">UI</text><path fill="none" d="M102.5,44 L102.5,68 M102.5,56 L119.5,56" filter="url(#fg5e5jrtzd276)" style="stroke:#a80036;stroke-width:2"/><ellipse cx="131.5" cy="56" fill="#FEFECE" filter="url(#fg5e5jrtzd276)" rx="12" ry="12" style="stroke:#a80036;stroke-width:2"/><text x="113.5" y="469.886" fill="#000" font-family="sans-serif" font-size="14" lengthAdjust="spacingAndGlyphs" textLength="13">UI</text><path fill="none" d="M102.5,477.1875 L102.5,501.1875 M102.5,489.1875 L119.5,489.1875" filter="url(#fg5e5jrtzd276)" style="stroke:#a80036;stroke-width:2"/><ellipse cx="131.5" cy="489.188" fill="#FEFECE" filter="url(#fg5e5jrtzd276)" rx="12" ry="12" style="stroke:#a80036;stroke-width:2"/><text x="307.5" y="84.995" fill="#000" font-family="sans-serif" font-size="14" lengthAdjust="spacingAndGlyphs" textLength="27">App</text><ellipse cx="324" cy="56" fill="#FEFECE" filter="url(#fg5e5jrtzd276)" rx="12" ry="12" style="stroke:#a80036;stroke-width:2"/><polygon fill="#A80036" points="320 44 326 39 324 44 326 49 320 44" style="stroke:#a80036;stroke-width:1"/><text x="307.5" y="469.886" fill="#000" font-family="sans-serif" font-size="14" lengthAdjust="spacingAndGlyphs" textLength="27">App</text><ellipse cx="324" cy="489.188" fill="#FEFECE" filter="url(#fg5e5jrtzd276)" rx="12" ry="12" style="stroke:#a80036;stroke-width:2"/><polygon fill="#A80036" points="320 477.188 326 472.188 324 477.188 326 482.188 320 477.188" style="stroke:#a80036;stroke-width:1"/><text x="506.5" y="84.995" fill="#000" font-family="sans-serif" font-size="14" lengthAdjust="spacingAndGlyphs" textLength="51">League</text><ellipse cx="535" cy="56" fill="#FEFECE" filter="url(#fg5e5jrtzd276)" rx="12" ry="12" style="stroke:#a80036;stroke-width:2"/><polygon fill="#A80036" points="531 44 537 39 535 44 537 49 531 44" style="stroke:#a80036;stroke-width:1"/><text x="506.5" y="469.886" fill="#000" font-family="sans-serif" font-size="14" lengthAdjust="spacingAndGlyphs" textLength="51">League</text><ellipse cx="535" cy="489.188" fill="#FEFECE" filter="url(#fg5e5jrtzd276)" rx="12" ry="12" style="stroke:#a80036;stroke-width:2"/><polygon fill="#A80036" points="531 477.188 537 472.188 535 477.188 537 482.188 531 477.188" style="stroke:#a80036;stroke-width:1"/><text x="818.5" y="84.995" fill="#000" font-family="sans-serif" font-size="14" lengthAdjust="spacingAndGlyphs" textLength="69">ShowClub</text><ellipse cx="856" cy="56" fill="#FEFECE" filter="url(#fg5e5jrtzd276)" rx="12" ry="12" style="stroke:#a80036;stroke-width:2"/><polygon fill="#A80036" points="852 44 858 39 856 44 858 49 852 44" style="stroke:#a80036;stroke-width:1"/><text x="818.5" y="469.886" fill="#000" font-family="sans-serif" font-size="14" lengthAdjust="spacingAndGlyphs" textLength="69">ShowClub</text><ellipse cx="856" cy="489.188" fill="#FEFECE" filter="url(#fg5e5jrtzd276)" rx="12" ry="12" style="stroke:#a80036;stroke-width:2"/><polygon fill="#A80036" points="852 477.188 858 472.188 856 477.188 858 482.188 852 477.188" style="stroke:#a80036;stroke-width:1"/><text x="903.5" y="84.995" fill="#000" font-family="sans-serif" font-size="14" lengthAdjust="spacingAndGlyphs" textLength="74">fetchClubs</text><ellipse cx="943.5" cy="56" fill="#FEFECE" filter="url(#fg5e5jrtzd276)" rx="12" ry="12" style="stroke:#a80036;stroke-width:2"/><polygon fill="#A80036" points="939.5 44 945.5 39 943.5 44 945.5 49 939.5 44" style="stroke:#a80036;stroke-width:1"/><text x="903.5" y="469.886" fill="#000" font-family="sans-serif" font-size="14" lengthAdjust="spacingAndGlyphs" textLength="74">fetchClubs</text><ellipse cx="943.5" cy="489.188" fill="#FEFECE" filter="url(#fg5e5jrtzd276)" rx="12" ry="12" style="stroke:#a80036;stroke-width:2"/><polygon fill="#A80036" points="939.5 477.188 945.5 472.188 943.5 477.188 945.5 482.188 939.5 477.188" style="stroke:#a80036;stroke-width:1"/><text x="1035.5" y="84.995" fill="#000" font-family="sans-serif" font-size="14" lengthAdjust="spacingAndGlyphs" textLength="36">store</text><path fill="#FEFECE" d="M1038.5,36 C1038.5,26 1056.5,26 1056.5,26 C1056.5,26 1074.5,26 1074.5,36 L1074.5,62 C1074.5,72 1056.5,72 1056.5,72 C1056.5,72 1038.5,72 1038.5,62 L1038.5,36" filter="url(#fg5e5jrtzd276)" style="stroke:#000;stroke-width:1.5"/><path fill="none" d="M1038.5,36 C1038.5,46 1056.5,46 1056.5,46 C1056.5,46 1074.5,46 1074.5,36" style="stroke:#000;stroke-width:1.5"/><text x="1035.5" y="469.886" fill="#000" font-family="sans-serif" font-size="14" lengthAdjust="spacingAndGlyphs" textLength="36">store</text><path fill="#FEFECE" d="M1038.5,483.1875 C1038.5,473.1875 1056.5,473.1875 1056.5,473.1875 C1056.5,473.1875 1074.5,473.1875 1074.5,483.1875 L1074.5,509.1875 C1074.5,519.1875 1056.5,519.1875 1056.5,519.1875 C1056.5,519.1875 1038.5,519.1875 1038.5,509.1875 L1038.5,483.1875" filter="url(#fg5e5jrtzd276)" style="stroke:#000;stroke-width:1.5"/><path fill="none" d="M1038.5,483.1875 C1038.5,493.1875 1056.5,493.1875 1056.5,493.1875 C1056.5,493.1875 1074.5,493.1875 1074.5,483.1875" style="stroke:#000;stroke-width:1.5"/><text x="1092" y="84.995" fill="#000" font-family="sans-serif" font-size="14" lengthAdjust="spacingAndGlyphs" textLength="21">API</text><path fill="#FEFECE" d="M1087.5,36 C1087.5,26 1105.5,26 1105.5,26 C1105.5,26 1123.5,26 1123.5,36 L1123.5,62 C1123.5,72 1105.5,72 1105.5,72 C1105.5,72 1087.5,72 1087.5,62 L1087.5,36" filter="url(#fg5e5jrtzd276)" style="stroke:#000;stroke-width:1.5"/><path fill="none" d="M1087.5,36 C1087.5,46 1105.5,46 1105.5,46 C1105.5,46 1123.5,46 1123.5,36" style="stroke:#000;stroke-width:1.5"/><text x="1092" y="469.886" fill="#000" font-family="sans-serif" font-size="14" lengthAdjust="spacingAndGlyphs" textLength="21">API</text><path fill="#FEFECE" d="M1087.5,483.1875 C1087.5,473.1875 1105.5,473.1875 1105.5,473.1875 C1105.5,473.1875 1123.5,473.1875 1123.5,483.1875 L1123.5,509.1875 C1123.5,519.1875 1105.5,519.1875 1105.5,519.1875 C1105.5,519.1875 1087.5,519.1875 1087.5,509.1875 L1087.5,483.1875" filter="url(#fg5e5jrtzd276)" style="stroke:#000;stroke-width:1.5"/><path fill="none" d="M1087.5,483.1875 C1087.5,493.1875 1105.5,493.1875 1105.5,493.1875 C1105.5,493.1875 1123.5,493.1875 1123.5,483.1875" style="stroke:#000;stroke-width:1.5"/><polygon fill="#A80036" points="111 115.43 121 119.43 111 123.43 115 119.43" style="stroke:#a80036;stroke-width:1"/><line style="stroke:#a80036;stroke-width:1" x1="24" x2="117" y1="119.43" y2="119.43"/><text x="31" y="114.364" fill="#000" font-family="sans-serif" font-size="13" lengthAdjust="spacingAndGlyphs" textLength="75">opens page</text><polygon fill="#A80036" points="312 144.563 322 148.563 312 152.563 316 148.563" style="stroke:#a80036;stroke-width:1"/><line style="stroke:#a80036;stroke-width:1" x1="123" x2="318" y1="148.563" y2="148.563"/><text x="130" y="143.497" fill="#000" font-family="sans-serif" font-size="13" lengthAdjust="spacingAndGlyphs" textLength="117">request League UI</text><polygon fill="#A80036" points="523 173.695 533 177.695 523 181.695 527 177.695" style="stroke:#a80036;stroke-width:1"/><line style="stroke:#a80036;stroke-width:1" x1="324" x2="529" y1="177.695" y2="177.695"/><text x="331" y="172.629" fill="#000" font-family="sans-serif" font-size="13" lengthAdjust="spacingAndGlyphs" textLength="177">request League component</text><polygon fill="#A80036" points="931.5 202.828 941.5 206.828 931.5 210.828 935.5 206.828" style="stroke:#a80036;stroke-width:1"/><line style="stroke:#a80036;stroke-width:1" x1="535" x2="937.5" y1="206.828" y2="206.828"/><text x="542" y="201.762" fill="#000" font-family="sans-serif" font-size="13" lengthAdjust="spacingAndGlyphs" textLength="131">dispatch API request</text><polygon fill="#A80036" points="1093.5 231.961 1103.5 235.961 1093.5 239.961 1097.5 235.961" style="stroke:#a80036;stroke-width:1"/><line style="stroke:#a80036;stroke-width:1" x1="943.5" x2="1099.5" y1="235.961" y2="235.961"/><text x="950.5" y="230.895" fill="#000" font-family="sans-serif" font-size="13" lengthAdjust="spacingAndGlyphs" textLength="114">HTTP GET request</text><polygon fill="#A80036" points="954.5 261.094 944.5 265.094 954.5 269.094 950.5 265.094" style="stroke:#a80036;stroke-width:1"/><line style="stroke:#a80036;stroke-width:1" x1="948.5" x2="1104.5" y1="265.094" y2="265.094"/><text x="960.5" y="260.028" fill="#000" font-family="sans-serif" font-size="13" lengthAdjust="spacingAndGlyphs" textLength="95">HTTP response</text><polygon fill="#A80036" points="1044.5 290.227 1054.5 294.227 1044.5 298.227 1048.5 294.227" style="stroke:#a80036;stroke-width:1"/><line style="stroke:#a80036;stroke-width:1" x1="943.5" x2="1050.5" y1="294.227" y2="294.227"/><text x="950.5" y="289.161" fill="#000" font-family="sans-serif" font-size="13" lengthAdjust="spacingAndGlyphs" textLength="89">updates store</text><polygon fill="#A80036" points="546 319.359 536 323.359 546 327.359 542 323.359" style="stroke:#a80036;stroke-width:1"/><line style="stroke:#a80036;stroke-width:1" x1="540" x2="1055.5" y1="323.359" y2="323.359"/><text x="552" y="318.293" fill="#000" font-family="sans-serif" font-size="13" lengthAdjust="spacingAndGlyphs" textLength="173">allow access to information</text><polygon fill="#A80036" points="844 348.492 854 352.492 844 356.492 848 352.492" style="stroke:#a80036;stroke-width:1"/><line style="stroke:#a80036;stroke-width:1" x1="535" x2="850" y1="352.492" y2="352.492"/><text x="542" y="347.426" fill="#000" font-family="sans-serif" font-size="13" lengthAdjust="spacingAndGlyphs" textLength="297">send data of 1 league and request component</text><polygon fill="#A80036" points="546 377.625 536 381.625 546 385.625 542 381.625" style="stroke:#a80036;stroke-width:1"/><line style="stroke:#a80036;stroke-width:1" x1="540" x2="855" y1="381.625" y2="381.625"/><text x="552" y="376.559" fill="#000" font-family="sans-serif" font-size="13" lengthAdjust="spacingAndGlyphs" textLength="202">response ShowClub component</text><polygon fill="#A80036" points="335 406.758 325 410.758 335 414.758 331 410.758" style="stroke:#a80036;stroke-width:1"/><line style="stroke:#a80036;stroke-width:1" x1="329" x2="534" y1="410.758" y2="410.758"/><text x="341" y="405.692" fill="#000" font-family="sans-serif" font-size="13" lengthAdjust="spacingAndGlyphs" textLength="187">response League component</text><polygon fill="#A80036" points="134 435.891 124 439.891 134 443.891 130 439.891" style="stroke:#a80036;stroke-width:1"/><line style="stroke:#a80036;stroke-width:1" x1="128" x2="323" y1="439.891" y2="439.891"/><text x="140" y="434.825" fill="#000" font-family="sans-serif" font-size="13" lengthAdjust="spacingAndGlyphs" textLength="177">response HTML, CSS and JS</text></g></svg>