<svg xmlns="http://www.w3.org/2000/svg" xmlns:xlink="http://www.w3.org/1999/xlink" width="837" height="396" contentScriptType="application/ecmascript" contentStyleType="text/css" style="width:837px;height:396px" preserveAspectRatio="none" version="1.1" viewBox="0 0 837 396" zoomAndPan="magnify"><defs><filter id="fa4lst5u9rm82" width="300%" height="300%" x="-1" y="-1"><feGaussianBlur result="blurOut" stdDeviation="2"/><feColorMatrix in="blurOut" result="blurOut2" type="matrix" values="0 0 0 0 0 0 0 0 0 0 0 0 0 0 0 0 0 0 .4 0"/><feOffset dx="4" dy="4" in="blurOut2" result="blurOut3"/><feBlend in="SourceGraphic" in2="blurOut3" mode="normal"/></filter></defs><g><line style="stroke:#a80036;stroke-width:1;stroke-dasharray:5,5" x1="24" x2="24" y1="88.297" y2="312.227"/><line style="stroke:#a80036;stroke-width:1;stroke-dasharray:5,5" x1="122.5" x2="122.5" y1="88.297" y2="312.227"/><line style="stroke:#a80036;stroke-width:1;stroke-dasharray:5,5" x1="323.5" x2="323.5" y1="88.297" y2="312.227"/><line style="stroke:#a80036;stroke-width:1;stroke-dasharray:5,5" x1="562.5" x2="562.5" y1="88.297" y2="312.227"/><line style="stroke:#a80036;stroke-width:1;stroke-dasharray:5,5" x1="812" x2="812" y1="88.297" y2="312.227"/><text x="5" y="84.995" fill="#000" font-family="sans-serif" font-size="14" lengthAdjust="spacingAndGlyphs" textLength="32">User</text><ellipse cx="24" cy="15" fill="#FEFECE" filter="url(#fa4lst5u9rm82)" rx="8" ry="8" style="stroke:#a80036;stroke-width:2"/><path fill="none" d="M24,23 L24,50 M11,31 L37,31 M24,50 L11,65 M24,50 L37,65" filter="url(#fa4lst5u9rm82)" style="stroke:#a80036;stroke-width:2"/><text x="5" y="324.222" fill="#000" font-family="sans-serif" font-size="14" lengthAdjust="spacingAndGlyphs" textLength="32">User</text><ellipse cx="24" cy="337.523" fill="#FEFECE" filter="url(#fa4lst5u9rm82)" rx="8" ry="8" style="stroke:#a80036;stroke-width:2"/><path fill="none" d="M24,345.5234 L24,372.5234 M11,353.5234 L37,353.5234 M24,372.5234 L11,387.5234 M24,372.5234 L37,387.5234" filter="url(#fa4lst5u9rm82)" style="stroke:#a80036;stroke-width:2"/><text x="113.5" y="84.995" fill="#000" font-family="sans-serif" font-size="14" lengthAdjust="spacingAndGlyphs" textLength="13">UI</text><path fill="none" d="M102.5,44 L102.5,68 M102.5,56 L119.5,56" filter="url(#fa4lst5u9rm82)" style="stroke:#a80036;stroke-width:2"/><ellipse cx="131.5" cy="56" fill="#FEFECE" filter="url(#fa4lst5u9rm82)" rx="12" ry="12" style="stroke:#a80036;stroke-width:2"/><text x="113.5" y="324.222" fill="#000" font-family="sans-serif" font-size="14" lengthAdjust="spacingAndGlyphs" textLength="13">UI</text><path fill="none" d="M102.5,331.5234 L102.5,355.5234 M102.5,343.5234 L119.5,343.5234" filter="url(#fa4lst5u9rm82)" style="stroke:#a80036;stroke-width:2"/><ellipse cx="131.5" cy="343.523" fill="#FEFECE" filter="url(#fa4lst5u9rm82)" rx="12" ry="12" style="stroke:#a80036;stroke-width:2"/><text x="307.5" y="84.995" fill="#000" font-family="sans-serif" font-size="14" lengthAdjust="spacingAndGlyphs" textLength="27">App</text><ellipse cx="324" cy="56" fill="#FEFECE" filter="url(#fa4lst5u9rm82)" rx="12" ry="12" style="stroke:#a80036;stroke-width:2"/><polygon fill="#A80036" points="320 44 326 39 324 44 326 49 320 44" style="stroke:#a80036;stroke-width:1"/><text x="307.5" y="324.222" fill="#000" font-family="sans-serif" font-size="14" lengthAdjust="spacingAndGlyphs" textLength="27">App</text><ellipse cx="324" cy="343.523" fill="#FEFECE" filter="url(#fa4lst5u9rm82)" rx="12" ry="12" style="stroke:#a80036;stroke-width:2"/><polygon fill="#A80036" points="320 331.523 326 326.523 324 331.523 326 336.523 320 331.523" style="stroke:#a80036;stroke-width:1"/><text x="520.5" y="84.995" fill="#000" font-family="sans-serif" font-size="14" lengthAdjust="spacingAndGlyphs" textLength="79">NavCostum</text><ellipse cx="563" cy="56" fill="#FEFECE" filter="url(#fa4lst5u9rm82)" rx="12" ry="12" style="stroke:#a80036;stroke-width:2"/><polygon fill="#A80036" points="559 44 565 39 563 44 565 49 559 44" style="stroke:#a80036;stroke-width:1"/><text x="520.5" y="324.222" fill="#000" font-family="sans-serif" font-size="14" lengthAdjust="spacingAndGlyphs" textLength="79">NavCostum</text><ellipse cx="563" cy="343.523" fill="#FEFECE" filter="url(#fa4lst5u9rm82)" rx="12" ry="12" style="stroke:#a80036;stroke-width:2"/><polygon fill="#A80036" points="559 331.523 565 326.523 563 331.523 565 336.523 559 331.523" style="stroke:#a80036;stroke-width:1"/><text x="791" y="84.995" fill="#000" font-family="sans-serif" font-size="14" lengthAdjust="spacingAndGlyphs" textLength="36">store</text><path fill="#FEFECE" d="M794,36 C794,26 812,26 812,26 C812,26 830,26 830,36 L830,62 C830,72 812,72 812,72 C812,72 794,72 794,62 L794,36" filter="url(#fa4lst5u9rm82)" style="stroke:#000;stroke-width:1.5"/><path fill="none" d="M794,36 C794,46 812,46 812,46 C812,46 830,46 830,36" style="stroke:#000;stroke-width:1.5"/><text x="791" y="324.222" fill="#000" font-family="sans-serif" font-size="14" lengthAdjust="spacingAndGlyphs" textLength="36">store</text><path fill="#FEFECE" d="M794,337.5234 C794,327.5234 812,327.5234 812,327.5234 C812,327.5234 830,327.5234 830,337.5234 L830,363.5234 C830,373.5234 812,373.5234 812,373.5234 C812,373.5234 794,373.5234 794,363.5234 L794,337.5234" filter="url(#fa4lst5u9rm82)" style="stroke:#000;stroke-width:1.5"/><path fill="none" d="M794,337.5234 C794,347.5234 812,347.5234 812,347.5234 C812,347.5234 830,347.5234 830,337.5234" style="stroke:#000;stroke-width:1.5"/><polygon fill="#A80036" points="111 115.43 121 119.43 111 123.43 115 119.43" style="stroke:#a80036;stroke-width:1"/><line style="stroke:#a80036;stroke-width:1" x1="24" x2="117" y1="119.43" y2="119.43"/><text x="31" y="114.364" fill="#000" font-family="sans-serif" font-size="13" lengthAdjust="spacingAndGlyphs" textLength="75">opens page</text><polygon fill="#A80036" points="312 144.563 322 148.563 312 152.563 316 148.563" style="stroke:#a80036;stroke-width:1"/><line style="stroke:#a80036;stroke-width:1" x1="123" x2="318" y1="148.563" y2="148.563"/><text x="130" y="143.497" fill="#000" font-family="sans-serif" font-size="13" lengthAdjust="spacingAndGlyphs" textLength="145">request NavCostum UI</text><polygon fill="#A80036" points="551 173.695 561 177.695 551 181.695 555 177.695" style="stroke:#a80036;stroke-width:1"/><line style="stroke:#a80036;stroke-width:1" x1="324" x2="557" y1="177.695" y2="177.695"/><text x="331" y="172.629" fill="#000" font-family="sans-serif" font-size="13" lengthAdjust="spacingAndGlyphs" textLength="205">request NavCostum component</text><polygon fill="#A80036" points="800 202.828 810 206.828 800 210.828 804 206.828" style="stroke:#a80036;stroke-width:1"/><line style="stroke:#a80036;stroke-width:1" x1="563" x2="806" y1="206.828" y2="206.828"/><text x="570" y="201.762" fill="#000" font-family="sans-serif" font-size="13" lengthAdjust="spacingAndGlyphs" textLength="191">request access to information</text><polygon fill="#A80036" points="574 231.961 564 235.961 574 239.961 570 235.961" style="stroke:#a80036;stroke-width:1"/><line style="stroke:#a80036;stroke-width:1" x1="568" x2="811" y1="235.961" y2="235.961"/><text x="580" y="230.895" fill="#000" font-family="sans-serif" font-size="13" lengthAdjust="spacingAndGlyphs" textLength="225">gives access to current information</text><polygon fill="#A80036" points="335 261.094 325 265.094 335 269.094 331 265.094" style="stroke:#a80036;stroke-width:1"/><line style="stroke:#a80036;stroke-width:1" x1="329" x2="562" y1="265.094" y2="265.094"/><text x="341" y="260.028" fill="#000" font-family="sans-serif" font-size="13" lengthAdjust="spacingAndGlyphs" textLength="215">response NavCostum component</text><polygon fill="#A80036" points="134 290.227 124 294.227 134 298.227 130 294.227" style="stroke:#a80036;stroke-width:1"/><line style="stroke:#a80036;stroke-width:1" x1="128" x2="323" y1="294.227" y2="294.227"/><text x="140" y="289.161" fill="#000" font-family="sans-serif" font-size="13" lengthAdjust="spacingAndGlyphs" textLength="177">response HTML, CSS and JS</text></g></svg>