<?xml version="1.0" encoding="UTF-8" standalone="no"?><svg xmlns="http://www.w3.org/2000/svg" xmlns:xlink="http://www.w3.org/1999/xlink" contentScriptType="application/ecmascript" contentStyleType="text/css" height="396px" preserveAspectRatio="none" style="width:837px;height:396px;" version="1.1" viewBox="0 0 837 396" width="837px" zoomAndPan="magnify"><defs><filter height="300%" id="fa4lst5u9rm82" width="300%" x="-1" y="-1"><feGaussianBlur result="blurOut" stdDeviation="2.0"/><feColorMatrix in="blurOut" result="blurOut2" type="matrix" values="0 0 0 0 0 0 0 0 0 0 0 0 0 0 0 0 0 0 .4 0"/><feOffset dx="4.0" dy="4.0" in="blurOut2" result="blurOut3"/><feBlend in="SourceGraphic" in2="blurOut3" mode="normal"/></filter></defs><g><line style="stroke:#A80036;stroke-width:1.0;stroke-dasharray:5.0,5.0;" x1="24" x2="24" y1="88.2969" y2="312.2266"/><line style="stroke:#A80036;stroke-width:1.0;stroke-dasharray:5.0,5.0;" x1="122.5" x2="122.5" y1="88.2969" y2="312.2266"/><line style="stroke:#A80036;stroke-width:1.0;stroke-dasharray:5.0,5.0;" x1="323.5" x2="323.5" y1="88.2969" y2="312.2266"/><line style="stroke:#A80036;stroke-width:1.0;stroke-dasharray:5.0,5.0;" x1="562.5" x2="562.5" y1="88.2969" y2="312.2266"/><line style="stroke:#A80036;stroke-width:1.0;stroke-dasharray:5.0,5.0;" x1="812" x2="812" y1="88.2969" y2="312.2266"/><text fill="#000000" font-family="sans-serif" font-size="14" lengthAdjust="spacingAndGlyphs" textLength="32" x="5" y="84.9951">User</text><ellipse cx="24" cy="15" fill="#FEFECE" filter="url(#fa4lst5u9rm82)" rx="8" ry="8" style="stroke:#A80036;stroke-width:2.0;"/><path d="M24,23 L24,50 M11,31 L37,31 M24,50 L11,65 M24,50 L37,65 " fill="none" filter="url(#fa4lst5u9rm82)" style="stroke:#A80036;stroke-width:2.0;"/><text fill="#000000" font-family="sans-serif" font-size="14" lengthAdjust="spacingAndGlyphs" textLength="32" x="5" y="324.2217">User</text><ellipse cx="24" cy="337.5234" fill="#FEFECE" filter="url(#fa4lst5u9rm82)" rx="8" ry="8" style="stroke:#A80036;stroke-width:2.0;"/><path d="M24,345.5234 L24,372.5234 M11,353.5234 L37,353.5234 M24,372.5234 L11,387.5234 M24,372.5234 L37,387.5234 " fill="none" filter="url(#fa4lst5u9rm82)" style="stroke:#A80036;stroke-width:2.0;"/><text fill="#000000" font-family="sans-serif" font-size="14" lengthAdjust="spacingAndGlyphs" textLength="13" x="113.5" y="84.9951">UI</text><path d="M102.5,44 L102.5,68 M102.5,56 L119.5,56 " fill="none" filter="url(#fa4lst5u9rm82)" style="stroke:#A80036;stroke-width:2.0;"/><ellipse cx="131.5" cy="56" fill="#FEFECE" filter="url(#fa4lst5u9rm82)" rx="12" ry="12" style="stroke:#A80036;stroke-width:2.0;"/><text fill="#000000" font-family="sans-serif" font-size="14" lengthAdjust="spacingAndGlyphs" textLength="13" x="113.5" y="324.2217">UI</text><path d="M102.5,331.5234 L102.5,355.5234 M102.5,343.5234 L119.5,343.5234 " fill="none" filter="url(#fa4lst5u9rm82)" style="stroke:#A80036;stroke-width:2.0;"/><ellipse cx="131.5" cy="343.5234" fill="#FEFECE" filter="url(#fa4lst5u9rm82)" rx="12" ry="12" style="stroke:#A80036;stroke-width:2.0;"/><text fill="#000000" font-family="sans-serif" font-size="14" lengthAdjust="spacingAndGlyphs" textLength="27" x="307.5" y="84.9951">App</text><ellipse cx="324" cy="56" fill="#FEFECE" filter="url(#fa4lst5u9rm82)" rx="12" ry="12" style="stroke:#A80036;stroke-width:2.0;"/><polygon fill="#A80036" points="320,44,326,39,324,44,326,49,320,44" style="stroke:#A80036;stroke-width:1.0;"/><text fill="#000000" font-family="sans-serif" font-size="14" lengthAdjust="spacingAndGlyphs" textLength="27" x="307.5" y="324.2217">App</text><ellipse cx="324" cy="343.5234" fill="#FEFECE" filter="url(#fa4lst5u9rm82)" rx="12" ry="12" style="stroke:#A80036;stroke-width:2.0;"/><polygon fill="#A80036" points="320,331.5234,326,326.5234,324,331.5234,326,336.5234,320,331.5234" style="stroke:#A80036;stroke-width:1.0;"/><text fill="#000000" font-family="sans-serif" font-size="14" lengthAdjust="spacingAndGlyphs" textLength="79" x="520.5" y="84.9951">NavCostum</text><ellipse cx="563" cy="56" fill="#FEFECE" filter="url(#fa4lst5u9rm82)" rx="12" ry="12" style="stroke:#A80036;stroke-width:2.0;"/><polygon fill="#A80036" points="559,44,565,39,563,44,565,49,559,44" style="stroke:#A80036;stroke-width:1.0;"/><text fill="#000000" font-family="sans-serif" font-size="14" lengthAdjust="spacingAndGlyphs" textLength="79" x="520.5" y="324.2217">NavCostum</text><ellipse cx="563" cy="343.5234" fill="#FEFECE" filter="url(#fa4lst5u9rm82)" rx="12" ry="12" style="stroke:#A80036;stroke-width:2.0;"/><polygon fill="#A80036" points="559,331.5234,565,326.5234,563,331.5234,565,336.5234,559,331.5234" style="stroke:#A80036;stroke-width:1.0;"/><text fill="#000000" font-family="sans-serif" font-size="14" lengthAdjust="spacingAndGlyphs" textLength="36" x="791" y="84.9951">store</text><path d="M794,36 C794,26 812,26 812,26 C812,26 830,26 830,36 L830,62 C830,72 812,72 812,72 C812,72 794,72 794,62 L794,36 " fill="#FEFECE" filter="url(#fa4lst5u9rm82)" style="stroke:#000000;stroke-width:1.5;"/><path d="M794,36 C794,46 812,46 812,46 C812,46 830,46 830,36 " fill="none" style="stroke:#000000;stroke-width:1.5;"/><text fill="#000000" font-family="sans-serif" font-size="14" lengthAdjust="spacingAndGlyphs" textLength="36" x="791" y="324.2217">store</text><path d="M794,337.5234 C794,327.5234 812,327.5234 812,327.5234 C812,327.5234 830,327.5234 830,337.5234 L830,363.5234 C830,373.5234 812,373.5234 812,373.5234 C812,373.5234 794,373.5234 794,363.5234 L794,337.5234 " fill="#FEFECE" filter="url(#fa4lst5u9rm82)" style="stroke:#000000;stroke-width:1.5;"/><path d="M794,337.5234 C794,347.5234 812,347.5234 812,347.5234 C812,347.5234 830,347.5234 830,337.5234 " fill="none" style="stroke:#000000;stroke-width:1.5;"/><polygon fill="#A80036" points="111,115.4297,121,119.4297,111,123.4297,115,119.4297" style="stroke:#A80036;stroke-width:1.0;"/><line style="stroke:#A80036;stroke-width:1.0;" x1="24" x2="117" y1="119.4297" y2="119.4297"/><text fill="#000000" font-family="sans-serif" font-size="13" lengthAdjust="spacingAndGlyphs" textLength="75" x="31" y="114.3638">opens page</text><polygon fill="#A80036" points="312,144.5625,322,148.5625,312,152.5625,316,148.5625" style="stroke:#A80036;stroke-width:1.0;"/><line style="stroke:#A80036;stroke-width:1.0;" x1="123" x2="318" y1="148.5625" y2="148.5625"/><text fill="#000000" font-family="sans-serif" font-size="13" lengthAdjust="spacingAndGlyphs" textLength="145" x="130" y="143.4966">request NavCostum UI</text><polygon fill="#A80036" points="551,173.6953,561,177.6953,551,181.6953,555,177.6953" style="stroke:#A80036;stroke-width:1.0;"/><line style="stroke:#A80036;stroke-width:1.0;" x1="324" x2="557" y1="177.6953" y2="177.6953"/><text fill="#000000" font-family="sans-serif" font-size="13" lengthAdjust="spacingAndGlyphs" textLength="205" x="331" y="172.6294">request NavCostum component</text><polygon fill="#A80036" points="800,202.8281,810,206.8281,800,210.8281,804,206.8281" style="stroke:#A80036;stroke-width:1.0;"/><line style="stroke:#A80036;stroke-width:1.0;" x1="563" x2="806" y1="206.8281" y2="206.8281"/><text fill="#000000" font-family="sans-serif" font-size="13" lengthAdjust="spacingAndGlyphs" textLength="191" x="570" y="201.7622">request access to information</text><polygon fill="#A80036" points="574,231.9609,564,235.9609,574,239.9609,570,235.9609" style="stroke:#A80036;stroke-width:1.0;"/><line style="stroke:#A80036;stroke-width:1.0;" x1="568" x2="811" y1="235.9609" y2="235.9609"/><text fill="#000000" font-family="sans-serif" font-size="13" lengthAdjust="spacingAndGlyphs" textLength="225" x="580" y="230.895">gives access to current information</text><polygon fill="#A80036" points="335,261.0938,325,265.0938,335,269.0938,331,265.0938" style="stroke:#A80036;stroke-width:1.0;"/><line style="stroke:#A80036;stroke-width:1.0;" x1="329" x2="562" y1="265.0938" y2="265.0938"/><text fill="#000000" font-family="sans-serif" font-size="13" lengthAdjust="spacingAndGlyphs" textLength="215" x="341" y="260.0278">response NavCostum component</text><polygon fill="#A80036" points="134,290.2266,124,294.2266,134,298.2266,130,294.2266" style="stroke:#A80036;stroke-width:1.0;"/><line style="stroke:#A80036;stroke-width:1.0;" x1="128" x2="323" y1="294.2266" y2="294.2266"/><text fill="#000000" font-family="sans-serif" font-size="13" lengthAdjust="spacingAndGlyphs" textLength="177" x="140" y="289.1606">response HTML, CSS and JS</text><!--MD5=[7f1eaca211fea06d647e2ee4fb9028b5]
@startuml

actor User
boundary UI
control App
control NavCostum

database store

User -> UI : opens page
UI -> App: request NavCostum UI
App -> NavCostum: request NavCostum component
NavCostum -> store: request access to information
store -> NavCostum: gives access to current information
NavCostum -> App : response NavCostum component
App -> UI: response HTML, CSS and JS
@enduml

PlantUML version 1.2020.22(Sun Dec 06 09:36:27 WET 2020)
(GPL source distribution)
Java Runtime: OpenJDK Runtime Environment
JVM: OpenJDK 64-Bit Server VM
Default Encoding: UTF-8
Language: en
Country: null
--></g></svg>