<?xml version="1.0" encoding="UTF-8" standalone="no"?><svg xmlns="http://www.w3.org/2000/svg" xmlns:xlink="http://www.w3.org/1999/xlink" contentScriptType="application/ecmascript" contentStyleType="text/css" height="483px" preserveAspectRatio="none" style="width:869px;height:483px;" version="1.1" viewBox="0 0 869 483" width="869px" zoomAndPan="magnify"><defs><filter height="300%" id="f3umhf0em3ia" width="300%" x="-1" y="-1"><feGaussianBlur result="blurOut" stdDeviation="2.0"/><feColorMatrix in="blurOut" result="blurOut2" type="matrix" values="0 0 0 0 0 0 0 0 0 0 0 0 0 0 0 0 0 0 .4 0"/><feOffset dx="4.0" dy="4.0" in="blurOut2" result="blurOut3"/><feBlend in="SourceGraphic" in2="blurOut3" mode="normal"/></filter></defs><g><line style="stroke:#A80036;stroke-width:1.0;stroke-dasharray:5.0,5.0;" x1="24" x2="24" y1="88.2969" y2="399.625"/><line style="stroke:#A80036;stroke-width:1.0;stroke-dasharray:5.0,5.0;" x1="122.5" x2="122.5" y1="88.2969" y2="399.625"/><line style="stroke:#A80036;stroke-width:1.0;stroke-dasharray:5.0,5.0;" x1="323.5" x2="323.5" y1="88.2969" y2="399.625"/><line style="stroke:#A80036;stroke-width:1.0;stroke-dasharray:5.0,5.0;" x1="526.5" x2="526.5" y1="88.2969" y2="399.625"/><line style="stroke:#A80036;stroke-width:1.0;stroke-dasharray:5.0,5.0;" x1="681.5" x2="681.5" y1="88.2969" y2="399.625"/><line style="stroke:#A80036;stroke-width:1.0;stroke-dasharray:5.0,5.0;" x1="795" x2="795" y1="88.2969" y2="399.625"/><line style="stroke:#A80036;stroke-width:1.0;stroke-dasharray:5.0,5.0;" x1="844" x2="844" y1="88.2969" y2="399.625"/><text fill="#000000" font-family="sans-serif" font-size="14" lengthAdjust="spacingAndGlyphs" textLength="32" x="5" y="84.9951">User</text><ellipse cx="24" cy="15" fill="#FEFECE" filter="url(#f3umhf0em3ia)" rx="8" ry="8" style="stroke:#A80036;stroke-width:2.0;"/><path d="M24,23 L24,50 M11,31 L37,31 M24,50 L11,65 M24,50 L37,65 " fill="none" filter="url(#f3umhf0em3ia)" style="stroke:#A80036;stroke-width:2.0;"/><text fill="#000000" font-family="sans-serif" font-size="14" lengthAdjust="spacingAndGlyphs" textLength="32" x="5" y="411.6201">User</text><ellipse cx="24" cy="424.9219" fill="#FEFECE" filter="url(#f3umhf0em3ia)" rx="8" ry="8" style="stroke:#A80036;stroke-width:2.0;"/><path d="M24,432.9219 L24,459.9219 M11,440.9219 L37,440.9219 M24,459.9219 L11,474.9219 M24,459.9219 L37,474.9219 " fill="none" filter="url(#f3umhf0em3ia)" style="stroke:#A80036;stroke-width:2.0;"/><text fill="#000000" font-family="sans-serif" font-size="14" lengthAdjust="spacingAndGlyphs" textLength="13" x="113.5" y="84.9951">UI</text><path d="M102.5,44 L102.5,68 M102.5,56 L119.5,56 " fill="none" filter="url(#f3umhf0em3ia)" style="stroke:#A80036;stroke-width:2.0;"/><ellipse cx="131.5" cy="56" fill="#FEFECE" filter="url(#f3umhf0em3ia)" rx="12" ry="12" style="stroke:#A80036;stroke-width:2.0;"/><text fill="#000000" font-family="sans-serif" font-size="14" lengthAdjust="spacingAndGlyphs" textLength="13" x="113.5" y="411.6201">UI</text><path d="M102.5,418.9219 L102.5,442.9219 M102.5,430.9219 L119.5,430.9219 " fill="none" filter="url(#f3umhf0em3ia)" style="stroke:#A80036;stroke-width:2.0;"/><ellipse cx="131.5" cy="430.9219" fill="#FEFECE" filter="url(#f3umhf0em3ia)" rx="12" ry="12" style="stroke:#A80036;stroke-width:2.0;"/><text fill="#000000" font-family="sans-serif" font-size="14" lengthAdjust="spacingAndGlyphs" textLength="27" x="307.5" y="84.9951">App</text><ellipse cx="324" cy="56" fill="#FEFECE" filter="url(#f3umhf0em3ia)" rx="12" ry="12" style="stroke:#A80036;stroke-width:2.0;"/><polygon fill="#A80036" points="320,44,326,39,324,44,326,49,320,44" style="stroke:#A80036;stroke-width:1.0;"/><text fill="#000000" font-family="sans-serif" font-size="14" lengthAdjust="spacingAndGlyphs" textLength="27" x="307.5" y="411.6201">App</text><ellipse cx="324" cy="430.9219" fill="#FEFECE" filter="url(#f3umhf0em3ia)" rx="12" ry="12" style="stroke:#A80036;stroke-width:2.0;"/><polygon fill="#A80036" points="320,418.9219,326,413.9219,324,418.9219,326,423.9219,320,418.9219" style="stroke:#A80036;stroke-width:1.0;"/><text fill="#000000" font-family="sans-serif" font-size="14" lengthAdjust="spacingAndGlyphs" textLength="41" x="503.5" y="84.9951">Player</text><ellipse cx="527" cy="56" fill="#FEFECE" filter="url(#f3umhf0em3ia)" rx="12" ry="12" style="stroke:#A80036;stroke-width:2.0;"/><polygon fill="#A80036" points="523,44,529,39,527,44,529,49,523,44" style="stroke:#A80036;stroke-width:1.0;"/><text fill="#000000" font-family="sans-serif" font-size="14" lengthAdjust="spacingAndGlyphs" textLength="41" x="503.5" y="411.6201">Player</text><ellipse cx="527" cy="430.9219" fill="#FEFECE" filter="url(#f3umhf0em3ia)" rx="12" ry="12" style="stroke:#A80036;stroke-width:2.0;"/><polygon fill="#A80036" points="523,418.9219,529,413.9219,527,418.9219,529,423.9219,523,418.9219" style="stroke:#A80036;stroke-width:1.0;"/><text fill="#000000" font-family="sans-serif" font-size="14" lengthAdjust="spacingAndGlyphs" textLength="105" x="626.5" y="84.9951">fetchOnePlayer</text><ellipse cx="682" cy="56" fill="#FEFECE" filter="url(#f3umhf0em3ia)" rx="12" ry="12" style="stroke:#A80036;stroke-width:2.0;"/><polygon fill="#A80036" points="678,44,684,39,682,44,684,49,678,44" style="stroke:#A80036;stroke-width:1.0;"/><text fill="#000000" font-family="sans-serif" font-size="14" lengthAdjust="spacingAndGlyphs" textLength="105" x="626.5" y="411.6201">fetchOnePlayer</text><ellipse cx="682" cy="430.9219" fill="#FEFECE" filter="url(#f3umhf0em3ia)" rx="12" ry="12" style="stroke:#A80036;stroke-width:2.0;"/><polygon fill="#A80036" points="678,418.9219,684,413.9219,682,418.9219,684,423.9219,678,418.9219" style="stroke:#A80036;stroke-width:1.0;"/><text fill="#000000" font-family="sans-serif" font-size="14" lengthAdjust="spacingAndGlyphs" textLength="36" x="774" y="84.9951">store</text><path d="M777,36 C777,26 795,26 795,26 C795,26 813,26 813,36 L813,62 C813,72 795,72 795,72 C795,72 777,72 777,62 L777,36 " fill="#FEFECE" filter="url(#f3umhf0em3ia)" style="stroke:#000000;stroke-width:1.5;"/><path d="M777,36 C777,46 795,46 795,46 C795,46 813,46 813,36 " fill="none" style="stroke:#000000;stroke-width:1.5;"/><text fill="#000000" font-family="sans-serif" font-size="14" lengthAdjust="spacingAndGlyphs" textLength="36" x="774" y="411.6201">store</text><path d="M777,424.9219 C777,414.9219 795,414.9219 795,414.9219 C795,414.9219 813,414.9219 813,424.9219 L813,450.9219 C813,460.9219 795,460.9219 795,460.9219 C795,460.9219 777,460.9219 777,450.9219 L777,424.9219 " fill="#FEFECE" filter="url(#f3umhf0em3ia)" style="stroke:#000000;stroke-width:1.5;"/><path d="M777,424.9219 C777,434.9219 795,434.9219 795,434.9219 C795,434.9219 813,434.9219 813,424.9219 " fill="none" style="stroke:#000000;stroke-width:1.5;"/><text fill="#000000" font-family="sans-serif" font-size="14" lengthAdjust="spacingAndGlyphs" textLength="21" x="830.5" y="84.9951">API</text><path d="M826,36 C826,26 844,26 844,26 C844,26 862,26 862,36 L862,62 C862,72 844,72 844,72 C844,72 826,72 826,62 L826,36 " fill="#FEFECE" filter="url(#f3umhf0em3ia)" style="stroke:#000000;stroke-width:1.5;"/><path d="M826,36 C826,46 844,46 844,46 C844,46 862,46 862,36 " fill="none" style="stroke:#000000;stroke-width:1.5;"/><text fill="#000000" font-family="sans-serif" font-size="14" lengthAdjust="spacingAndGlyphs" textLength="21" x="830.5" y="411.6201">API</text><path d="M826,424.9219 C826,414.9219 844,414.9219 844,414.9219 C844,414.9219 862,414.9219 862,424.9219 L862,450.9219 C862,460.9219 844,460.9219 844,460.9219 C844,460.9219 826,460.9219 826,450.9219 L826,424.9219 " fill="#FEFECE" filter="url(#f3umhf0em3ia)" style="stroke:#000000;stroke-width:1.5;"/><path d="M826,424.9219 C826,434.9219 844,434.9219 844,434.9219 C844,434.9219 862,434.9219 862,424.9219 " fill="none" style="stroke:#000000;stroke-width:1.5;"/><polygon fill="#A80036" points="111,115.4297,121,119.4297,111,123.4297,115,119.4297" style="stroke:#A80036;stroke-width:1.0;"/><line style="stroke:#A80036;stroke-width:1.0;" x1="24" x2="117" y1="119.4297" y2="119.4297"/><text fill="#000000" font-family="sans-serif" font-size="13" lengthAdjust="spacingAndGlyphs" textLength="75" x="31" y="114.3638">opens page</text><polygon fill="#A80036" points="312,144.5625,322,148.5625,312,152.5625,316,148.5625" style="stroke:#A80036;stroke-width:1.0;"/><line style="stroke:#A80036;stroke-width:1.0;" x1="123" x2="318" y1="148.5625" y2="148.5625"/><text fill="#000000" font-family="sans-serif" font-size="13" lengthAdjust="spacingAndGlyphs" textLength="109" x="130" y="143.4966">request Player UI</text><polygon fill="#A80036" points="515,173.6953,525,177.6953,515,181.6953,519,177.6953" style="stroke:#A80036;stroke-width:1.0;"/><line style="stroke:#A80036;stroke-width:1.0;" x1="324" x2="521" y1="177.6953" y2="177.6953"/><text fill="#000000" font-family="sans-serif" font-size="13" lengthAdjust="spacingAndGlyphs" textLength="169" x="331" y="172.6294">request Player component</text><polygon fill="#A80036" points="670,202.8281,680,206.8281,670,210.8281,674,206.8281" style="stroke:#A80036;stroke-width:1.0;"/><line style="stroke:#A80036;stroke-width:1.0;" x1="527" x2="676" y1="206.8281" y2="206.8281"/><text fill="#000000" font-family="sans-serif" font-size="13" lengthAdjust="spacingAndGlyphs" textLength="131" x="534" y="201.7622">dispatch API request</text><polygon fill="#A80036" points="832,231.9609,842,235.9609,832,239.9609,836,235.9609" style="stroke:#A80036;stroke-width:1.0;"/><line style="stroke:#A80036;stroke-width:1.0;" x1="682" x2="838" y1="235.9609" y2="235.9609"/><text fill="#000000" font-family="sans-serif" font-size="13" lengthAdjust="spacingAndGlyphs" textLength="114" x="689" y="230.895">HTTP GET request</text><polygon fill="#A80036" points="693,261.0938,683,265.0938,693,269.0938,689,265.0938" style="stroke:#A80036;stroke-width:1.0;"/><line style="stroke:#A80036;stroke-width:1.0;" x1="687" x2="843" y1="265.0938" y2="265.0938"/><text fill="#000000" font-family="sans-serif" font-size="13" lengthAdjust="spacingAndGlyphs" textLength="95" x="699" y="260.0278">HTTP response</text><polygon fill="#A80036" points="783,290.2266,793,294.2266,783,298.2266,787,294.2266" style="stroke:#A80036;stroke-width:1.0;"/><line style="stroke:#A80036;stroke-width:1.0;" x1="682" x2="789" y1="294.2266" y2="294.2266"/><text fill="#000000" font-family="sans-serif" font-size="13" lengthAdjust="spacingAndGlyphs" textLength="89" x="689" y="289.1606">updates store</text><polygon fill="#A80036" points="538,319.3594,528,323.3594,538,327.3594,534,323.3594" style="stroke:#A80036;stroke-width:1.0;"/><line style="stroke:#A80036;stroke-width:1.0;" x1="532" x2="794" y1="323.3594" y2="323.3594"/><text fill="#000000" font-family="sans-serif" font-size="13" lengthAdjust="spacingAndGlyphs" textLength="173" x="544" y="318.2935">allow access to information</text><polygon fill="#A80036" points="335,348.4922,325,352.4922,335,356.4922,331,352.4922" style="stroke:#A80036;stroke-width:1.0;"/><line style="stroke:#A80036;stroke-width:1.0;" x1="329" x2="526" y1="352.4922" y2="352.4922"/><text fill="#000000" font-family="sans-serif" font-size="13" lengthAdjust="spacingAndGlyphs" textLength="179" x="341" y="347.4263">response Player component</text><polygon fill="#A80036" points="134,377.625,124,381.625,134,385.625,130,381.625" style="stroke:#A80036;stroke-width:1.0;"/><line style="stroke:#A80036;stroke-width:1.0;" x1="128" x2="323" y1="381.625" y2="381.625"/><text fill="#000000" font-family="sans-serif" font-size="13" lengthAdjust="spacingAndGlyphs" textLength="177" x="140" y="376.5591">response HTML, CSS and JS</text><!--MD5=[956583d006e161771512c2fcb35582e1]
@startuml

actor User
boundary UI
control App
control Player
control fetchOnePlayer
database store
database API

User -> UI : opens page
UI -> App: request Player UI
App -> Player: request Player component
Player-> fetchOnePlayer: dispatch API request 
fetchOnePlayer -> API: HTTP GET request
API -> fetchOnePlayer : HTTP response
fetchOnePlayer -> store: updates store
store -> Player : allow access to information
Player -> App: response Player component
App -> UI: response HTML, CSS and JS
@enduml

PlantUML version 1.2020.22(Sun Dec 06 09:36:27 WET 2020)
(GPL source distribution)
Java Runtime: OpenJDK Runtime Environment
JVM: OpenJDK 64-Bit Server VM
Default Encoding: UTF-8
Language: en
Country: null
--></g></svg>