<svg xmlns="http://www.w3.org/2000/svg" xmlns:xlink="http://www.w3.org/1999/xlink" width="869" height="483" contentScriptType="application/ecmascript" contentStyleType="text/css" style="width:869px;height:483px" preserveAspectRatio="none" version="1.1" viewBox="0 0 869 483" zoomAndPan="magnify"><defs><filter id="f3umhf0em3ia" width="300%" height="300%" x="-1" y="-1"><feGaussianBlur result="blurOut" stdDeviation="2"/><feColorMatrix in="blurOut" result="blurOut2" type="matrix" values="0 0 0 0 0 0 0 0 0 0 0 0 0 0 0 0 0 0 .4 0"/><feOffset dx="4" dy="4" in="blurOut2" result="blurOut3"/><feBlend in="SourceGraphic" in2="blurOut3" mode="normal"/></filter></defs><g><line style="stroke:#a80036;stroke-width:1;stroke-dasharray:5,5" x1="24" x2="24" y1="88.297" y2="399.625"/><line style="stroke:#a80036;stroke-width:1;stroke-dasharray:5,5" x1="122.5" x2="122.5" y1="88.297" y2="399.625"/><line style="stroke:#a80036;stroke-width:1;stroke-dasharray:5,5" x1="323.5" x2="323.5" y1="88.297" y2="399.625"/><line style="stroke:#a80036;stroke-width:1;stroke-dasharray:5,5" x1="526.5" x2="526.5" y1="88.297" y2="399.625"/><line style="stroke:#a80036;stroke-width:1;stroke-dasharray:5,5" x1="681.5" x2="681.5" y1="88.297" y2="399.625"/><line style="stroke:#a80036;stroke-width:1;stroke-dasharray:5,5" x1="795" x2="795" y1="88.297" y2="399.625"/><line style="stroke:#a80036;stroke-width:1;stroke-dasharray:5,5" x1="844" x2="844" y1="88.297" y2="399.625"/><text x="5" y="84.995" fill="#000" font-family="sans-serif" font-size="14" lengthAdjust="spacingAndGlyphs" textLength="32">User</text><ellipse cx="24" cy="15" fill="#FEFECE" filter="url(#f3umhf0em3ia)" rx="8" ry="8" style="stroke:#a80036;stroke-width:2"/><path fill="none" d="M24,23 L24,50 M11,31 L37,31 M24,50 L11,65 M24,50 L37,65" filter="url(#f3umhf0em3ia)" style="stroke:#a80036;stroke-width:2"/><text x="5" y="411.62" fill="#000" font-family="sans-serif" font-size="14" lengthAdjust="spacingAndGlyphs" textLength="32">User</text><ellipse cx="24" cy="424.922" fill="#FEFECE" filter="url(#f3umhf0em3ia)" rx="8" ry="8" style="stroke:#a80036;stroke-width:2"/><path fill="none" d="M24,432.9219 L24,459.9219 M11,440.9219 L37,440.9219 M24,459.9219 L11,474.9219 M24,459.9219 L37,474.9219" filter="url(#f3umhf0em3ia)" style="stroke:#a80036;stroke-width:2"/><text x="113.5" y="84.995" fill="#000" font-family="sans-serif" font-size="14" lengthAdjust="spacingAndGlyphs" textLength="13">UI</text><path fill="none" d="M102.5,44 L102.5,68 M102.5,56 L119.5,56" filter="url(#f3umhf0em3ia)" style="stroke:#a80036;stroke-width:2"/><ellipse cx="131.5" cy="56" fill="#FEFECE" filter="url(#f3umhf0em3ia)" rx="12" ry="12" style="stroke:#a80036;stroke-width:2"/><text x="113.5" y="411.62" fill="#000" font-family="sans-serif" font-size="14" lengthAdjust="spacingAndGlyphs" textLength="13">UI</text><path fill="none" d="M102.5,418.9219 L102.5,442.9219 M102.5,430.9219 L119.5,430.9219" filter="url(#f3umhf0em3ia)" style="stroke:#a80036;stroke-width:2"/><ellipse cx="131.5" cy="430.922" fill="#FEFECE" filter="url(#f3umhf0em3ia)" rx="12" ry="12" style="stroke:#a80036;stroke-width:2"/><text x="307.5" y="84.995" fill="#000" font-family="sans-serif" font-size="14" lengthAdjust="spacingAndGlyphs" textLength="27">App</text><ellipse cx="324" cy="56" fill="#FEFECE" filter="url(#f3umhf0em3ia)" rx="12" ry="12" style="stroke:#a80036;stroke-width:2"/><polygon fill="#A80036" points="320 44 326 39 324 44 326 49 320 44" style="stroke:#a80036;stroke-width:1"/><text x="307.5" y="411.62" fill="#000" font-family="sans-serif" font-size="14" lengthAdjust="spacingAndGlyphs" textLength="27">App</text><ellipse cx="324" cy="430.922" fill="#FEFECE" filter="url(#f3umhf0em3ia)" rx="12" ry="12" style="stroke:#a80036;stroke-width:2"/><polygon fill="#A80036" points="320 418.922 326 413.922 324 418.922 326 423.922 320 418.922" style="stroke:#a80036;stroke-width:1"/><text x="503.5" y="84.995" fill="#000" font-family="sans-serif" font-size="14" lengthAdjust="spacingAndGlyphs" textLength="41">Player</text><ellipse cx="527" cy="56" fill="#FEFECE" filter="url(#f3umhf0em3ia)" rx="12" ry="12" style="stroke:#a80036;stroke-width:2"/><polygon fill="#A80036" points="523 44 529 39 527 44 529 49 523 44" style="stroke:#a80036;stroke-width:1"/><text x="503.5" y="411.62" fill="#000" font-family="sans-serif" font-size="14" lengthAdjust="spacingAndGlyphs" textLength="41">Player</text><ellipse cx="527" cy="430.922" fill="#FEFECE" filter="url(#f3umhf0em3ia)" rx="12" ry="12" style="stroke:#a80036;stroke-width:2"/><polygon fill="#A80036" points="523 418.922 529 413.922 527 418.922 529 423.922 523 418.922" style="stroke:#a80036;stroke-width:1"/><text x="626.5" y="84.995" fill="#000" font-family="sans-serif" font-size="14" lengthAdjust="spacingAndGlyphs" textLength="105">fetchOnePlayer</text><ellipse cx="682" cy="56" fill="#FEFECE" filter="url(#f3umhf0em3ia)" rx="12" ry="12" style="stroke:#a80036;stroke-width:2"/><polygon fill="#A80036" points="678 44 684 39 682 44 684 49 678 44" style="stroke:#a80036;stroke-width:1"/><text x="626.5" y="411.62" fill="#000" font-family="sans-serif" font-size="14" lengthAdjust="spacingAndGlyphs" textLength="105">fetchOnePlayer</text><ellipse cx="682" cy="430.922" fill="#FEFECE" filter="url(#f3umhf0em3ia)" rx="12" ry="12" style="stroke:#a80036;stroke-width:2"/><polygon fill="#A80036" points="678 418.922 684 413.922 682 418.922 684 423.922 678 418.922" style="stroke:#a80036;stroke-width:1"/><text x="774" y="84.995" fill="#000" font-family="sans-serif" font-size="14" lengthAdjust="spacingAndGlyphs" textLength="36">store</text><path fill="#FEFECE" d="M777,36 C777,26 795,26 795,26 C795,26 813,26 813,36 L813,62 C813,72 795,72 795,72 C795,72 777,72 777,62 L777,36" filter="url(#f3umhf0em3ia)" style="stroke:#000;stroke-width:1.5"/><path fill="none" d="M777,36 C777,46 795,46 795,46 C795,46 813,46 813,36" style="stroke:#000;stroke-width:1.5"/><text x="774" y="411.62" fill="#000" font-family="sans-serif" font-size="14" lengthAdjust="spacingAndGlyphs" textLength="36">store</text><path fill="#FEFECE" d="M777,424.9219 C777,414.9219 795,414.9219 795,414.9219 C795,414.9219 813,414.9219 813,424.9219 L813,450.9219 C813,460.9219 795,460.9219 795,460.9219 C795,460.9219 777,460.9219 777,450.9219 L777,424.9219" filter="url(#f3umhf0em3ia)" style="stroke:#000;stroke-width:1.5"/><path fill="none" d="M777,424.9219 C777,434.9219 795,434.9219 795,434.9219 C795,434.9219 813,434.9219 813,424.9219" style="stroke:#000;stroke-width:1.5"/><text x="830.5" y="84.995" fill="#000" font-family="sans-serif" font-size="14" lengthAdjust="spacingAndGlyphs" textLength="21">API</text><path fill="#FEFECE" d="M826,36 C826,26 844,26 844,26 C844,26 862,26 862,36 L862,62 C862,72 844,72 844,72 C844,72 826,72 826,62 L826,36" filter="url(#f3umhf0em3ia)" style="stroke:#000;stroke-width:1.5"/><path fill="none" d="M826,36 C826,46 844,46 844,46 C844,46 862,46 862,36" style="stroke:#000;stroke-width:1.5"/><text x="830.5" y="411.62" fill="#000" font-family="sans-serif" font-size="14" lengthAdjust="spacingAndGlyphs" textLength="21">API</text><path fill="#FEFECE" d="M826,424.9219 C826,414.9219 844,414.9219 844,414.9219 C844,414.9219 862,414.9219 862,424.9219 L862,450.9219 C862,460.9219 844,460.9219 844,460.9219 C844,460.9219 826,460.9219 826,450.9219 L826,424.9219" filter="url(#f3umhf0em3ia)" style="stroke:#000;stroke-width:1.5"/><path fill="none" d="M826,424.9219 C826,434.9219 844,434.9219 844,434.9219 C844,434.9219 862,434.9219 862,424.9219" style="stroke:#000;stroke-width:1.5"/><polygon fill="#A80036" points="111 115.43 121 119.43 111 123.43 115 119.43" style="stroke:#a80036;stroke-width:1"/><line style="stroke:#a80036;stroke-width:1" x1="24" x2="117" y1="119.43" y2="119.43"/><text x="31" y="114.364" fill="#000" font-family="sans-serif" font-size="13" lengthAdjust="spacingAndGlyphs" textLength="75">opens page</text><polygon fill="#A80036" points="312 144.563 322 148.563 312 152.563 316 148.563" style="stroke:#a80036;stroke-width:1"/><line style="stroke:#a80036;stroke-width:1" x1="123" x2="318" y1="148.563" y2="148.563"/><text x="130" y="143.497" fill="#000" font-family="sans-serif" font-size="13" lengthAdjust="spacingAndGlyphs" textLength="109">request Player UI</text><polygon fill="#A80036" points="515 173.695 525 177.695 515 181.695 519 177.695" style="stroke:#a80036;stroke-width:1"/><line style="stroke:#a80036;stroke-width:1" x1="324" x2="521" y1="177.695" y2="177.695"/><text x="331" y="172.629" fill="#000" font-family="sans-serif" font-size="13" lengthAdjust="spacingAndGlyphs" textLength="169">request Player component</text><polygon fill="#A80036" points="670 202.828 680 206.828 670 210.828 674 206.828" style="stroke:#a80036;stroke-width:1"/><line style="stroke:#a80036;stroke-width:1" x1="527" x2="676" y1="206.828" y2="206.828"/><text x="534" y="201.762" fill="#000" font-family="sans-serif" font-size="13" lengthAdjust="spacingAndGlyphs" textLength="131">dispatch API request</text><polygon fill="#A80036" points="832 231.961 842 235.961 832 239.961 836 235.961" style="stroke:#a80036;stroke-width:1"/><line style="stroke:#a80036;stroke-width:1" x1="682" x2="838" y1="235.961" y2="235.961"/><text x="689" y="230.895" fill="#000" font-family="sans-serif" font-size="13" lengthAdjust="spacingAndGlyphs" textLength="114">HTTP GET request</text><polygon fill="#A80036" points="693 261.094 683 265.094 693 269.094 689 265.094" style="stroke:#a80036;stroke-width:1"/><line style="stroke:#a80036;stroke-width:1" x1="687" x2="843" y1="265.094" y2="265.094"/><text x="699" y="260.028" fill="#000" font-family="sans-serif" font-size="13" lengthAdjust="spacingAndGlyphs" textLength="95">HTTP response</text><polygon fill="#A80036" points="783 290.227 793 294.227 783 298.227 787 294.227" style="stroke:#a80036;stroke-width:1"/><line style="stroke:#a80036;stroke-width:1" x1="682" x2="789" y1="294.227" y2="294.227"/><text x="689" y="289.161" fill="#000" font-family="sans-serif" font-size="13" lengthAdjust="spacingAndGlyphs" textLength="89">updates store</text><polygon fill="#A80036" points="538 319.359 528 323.359 538 327.359 534 323.359" style="stroke:#a80036;stroke-width:1"/><line style="stroke:#a80036;stroke-width:1" x1="532" x2="794" y1="323.359" y2="323.359"/><text x="544" y="318.293" fill="#000" font-family="sans-serif" font-size="13" lengthAdjust="spacingAndGlyphs" textLength="173">allow access to information</text><polygon fill="#A80036" points="335 348.492 325 352.492 335 356.492 331 352.492" style="stroke:#a80036;stroke-width:1"/><line style="stroke:#a80036;stroke-width:1" x1="329" x2="526" y1="352.492" y2="352.492"/><text x="341" y="347.426" fill="#000" font-family="sans-serif" font-size="13" lengthAdjust="spacingAndGlyphs" textLength="179">response Player component</text><polygon fill="#A80036" points="134 377.625 124 381.625 134 385.625 130 381.625" style="stroke:#a80036;stroke-width:1"/><line style="stroke:#a80036;stroke-width:1" x1="128" x2="323" y1="381.625" y2="381.625"/><text x="140" y="376.559" fill="#000" font-family="sans-serif" font-size="13" lengthAdjust="spacingAndGlyphs" textLength="177">response HTML, CSS and JS</text></g></svg>