<svg xmlns="http://www.w3.org/2000/svg" xmlns:xlink="http://www.w3.org/1999/xlink" width="716" height="396" contentScriptType="application/ecmascript" contentStyleType="text/css" style="width:716px;height:396px" preserveAspectRatio="none" version="1.1" viewBox="0 0 716 396" zoomAndPan="magnify"><defs><filter id="f1fitjfz9rrzot" width="300%" height="300%" x="-1" y="-1"><feGaussianBlur result="blurOut" stdDeviation="2"/><feColorMatrix in="blurOut" result="blurOut2" type="matrix" values="0 0 0 0 0 0 0 0 0 0 0 0 0 0 0 0 0 0 .4 0"/><feOffset dx="4" dy="4" in="blurOut2" result="blurOut3"/><feBlend in="SourceGraphic" in2="blurOut3" mode="normal"/></filter></defs><g><line style="stroke:#a80036;stroke-width:1;stroke-dasharray:5,5" x1="24" x2="24" y1="88.297" y2="312.227"/><line style="stroke:#a80036;stroke-width:1;stroke-dasharray:5,5" x1="93.5" x2="93.5" y1="88.297" y2="312.227"/><line style="stroke:#a80036;stroke-width:1;stroke-dasharray:5,5" x1="144.5" x2="144.5" y1="88.297" y2="312.227"/><line style="stroke:#a80036;stroke-width:1;stroke-dasharray:5,5" x1="309.5" x2="309.5" y1="88.297" y2="312.227"/><line style="stroke:#a80036;stroke-width:1;stroke-dasharray:5,5" x1="483.5" x2="483.5" y1="88.297" y2="312.227"/><line style="stroke:#a80036;stroke-width:1;stroke-dasharray:5,5" x1="619" x2="619" y1="88.297" y2="312.227"/><line style="stroke:#a80036;stroke-width:1;stroke-dasharray:5,5" x1="682" x2="682" y1="88.297" y2="312.227"/><text x="5" y="84.995" fill="#000" font-family="sans-serif" font-size="14" lengthAdjust="spacingAndGlyphs" textLength="32">User</text><ellipse cx="24" cy="15" fill="#FEFECE" filter="url(#f1fitjfz9rrzot)" rx="8" ry="8" style="stroke:#a80036;stroke-width:2"/><path fill="none" d="M24,23 L24,50 M11,31 L37,31 M24,50 L11,65 M24,50 L37,65" filter="url(#f1fitjfz9rrzot)" style="stroke:#a80036;stroke-width:2"/><text x="5" y="324.222" fill="#000" font-family="sans-serif" font-size="14" lengthAdjust="spacingAndGlyphs" textLength="32">User</text><ellipse cx="24" cy="337.523" fill="#FEFECE" filter="url(#f1fitjfz9rrzot)" rx="8" ry="8" style="stroke:#a80036;stroke-width:2"/><path fill="none" d="M24,345.5234 L24,372.5234 M11,353.5234 L37,353.5234 M24,372.5234 L11,387.5234 M24,372.5234 L37,387.5234" filter="url(#f1fitjfz9rrzot)" style="stroke:#a80036;stroke-width:2"/><text x="84.5" y="84.995" fill="#000" font-family="sans-serif" font-size="14" lengthAdjust="spacingAndGlyphs" textLength="13">UI</text><path fill="none" d="M73.5,44 L73.5,68 M73.5,56 L90.5,56" filter="url(#f1fitjfz9rrzot)" style="stroke:#a80036;stroke-width:2"/><ellipse cx="102.5" cy="56" fill="#FEFECE" filter="url(#f1fitjfz9rrzot)" rx="12" ry="12" style="stroke:#a80036;stroke-width:2"/><text x="84.5" y="324.222" fill="#000" font-family="sans-serif" font-size="14" lengthAdjust="spacingAndGlyphs" textLength="13">UI</text><path fill="none" d="M73.5,331.5234 L73.5,355.5234 M73.5,343.5234 L90.5,343.5234" filter="url(#f1fitjfz9rrzot)" style="stroke:#a80036;stroke-width:2"/><ellipse cx="102.5" cy="343.523" fill="#FEFECE" filter="url(#f1fitjfz9rrzot)" rx="12" ry="12" style="stroke:#a80036;stroke-width:2"/><text x="128.5" y="84.995" fill="#000" font-family="sans-serif" font-size="14" lengthAdjust="spacingAndGlyphs" textLength="27">App</text><ellipse cx="145" cy="56" fill="#FEFECE" filter="url(#f1fitjfz9rrzot)" rx="12" ry="12" style="stroke:#a80036;stroke-width:2"/><polygon fill="#A80036" points="141 44 147 39 145 44 147 49 141 44" style="stroke:#a80036;stroke-width:1"/><text x="128.5" y="324.222" fill="#000" font-family="sans-serif" font-size="14" lengthAdjust="spacingAndGlyphs" textLength="27">App</text><ellipse cx="145" cy="343.523" fill="#FEFECE" filter="url(#f1fitjfz9rrzot)" rx="12" ry="12" style="stroke:#a80036;stroke-width:2"/><polygon fill="#A80036" points="141 331.523 147 326.523 145 331.523 147 336.523 141 331.523" style="stroke:#a80036;stroke-width:1"/><text x="282.5" y="84.995" fill="#000" font-family="sans-serif" font-size="14" lengthAdjust="spacingAndGlyphs" textLength="49">SignUp</text><ellipse cx="310" cy="56" fill="#FEFECE" filter="url(#f1fitjfz9rrzot)" rx="12" ry="12" style="stroke:#a80036;stroke-width:2"/><polygon fill="#A80036" points="306 44 312 39 310 44 312 49 306 44" style="stroke:#a80036;stroke-width:1"/><text x="282.5" y="324.222" fill="#000" font-family="sans-serif" font-size="14" lengthAdjust="spacingAndGlyphs" textLength="49">SignUp</text><ellipse cx="310" cy="343.523" fill="#FEFECE" filter="url(#f1fitjfz9rrzot)" rx="12" ry="12" style="stroke:#a80036;stroke-width:2"/><polygon fill="#A80036" points="306 331.523 312 326.523 310 331.523 312 336.523 306 331.523" style="stroke:#a80036;stroke-width:1"/><text x="435.5" y="84.995" fill="#000" font-family="sans-serif" font-size="14" lengthAdjust="spacingAndGlyphs" textLength="91">signUpAction</text><ellipse cx="484" cy="56" fill="#FEFECE" filter="url(#f1fitjfz9rrzot)" rx="12" ry="12" style="stroke:#a80036;stroke-width:2"/><polygon fill="#A80036" points="480 44 486 39 484 44 486 49 480 44" style="stroke:#a80036;stroke-width:1"/><text x="435.5" y="324.222" fill="#000" font-family="sans-serif" font-size="14" lengthAdjust="spacingAndGlyphs" textLength="91">signUpAction</text><ellipse cx="484" cy="343.523" fill="#FEFECE" filter="url(#f1fitjfz9rrzot)" rx="12" ry="12" style="stroke:#a80036;stroke-width:2"/><polygon fill="#A80036" points="480 331.523 486 326.523 484 331.523 486 336.523 480 331.523" style="stroke:#a80036;stroke-width:1"/><text x="598" y="84.995" fill="#000" font-family="sans-serif" font-size="14" lengthAdjust="spacingAndGlyphs" textLength="36">store</text><path fill="#FEFECE" d="M601,36 C601,26 619,26 619,26 C619,26 637,26 637,36 L637,62 C637,72 619,72 619,72 C619,72 601,72 601,62 L601,36" filter="url(#f1fitjfz9rrzot)" style="stroke:#000;stroke-width:1.5"/><path fill="none" d="M601,36 C601,46 619,46 619,46 C619,46 637,46 637,36" style="stroke:#000;stroke-width:1.5"/><text x="598" y="324.222" fill="#000" font-family="sans-serif" font-size="14" lengthAdjust="spacingAndGlyphs" textLength="36">store</text><path fill="#FEFECE" d="M601,337.5234 C601,327.5234 619,327.5234 619,327.5234 C619,327.5234 637,327.5234 637,337.5234 L637,363.5234 C637,373.5234 619,373.5234 619,373.5234 C619,373.5234 601,373.5234 601,363.5234 L601,337.5234" filter="url(#f1fitjfz9rrzot)" style="stroke:#000;stroke-width:1.5"/><path fill="none" d="M601,337.5234 C601,347.5234 619,347.5234 619,347.5234 C619,347.5234 637,347.5234 637,337.5234" style="stroke:#000;stroke-width:1.5"/><text x="650" y="84.995" fill="#000" font-family="sans-serif" font-size="14" lengthAdjust="spacingAndGlyphs" textLength="59">Firebase</text><path fill="#FEFECE" d="M664.5,36 C664.5,26 682.5,26 682.5,26 C682.5,26 700.5,26 700.5,36 L700.5,62 C700.5,72 682.5,72 682.5,72 C682.5,72 664.5,72 664.5,62 L664.5,36" filter="url(#f1fitjfz9rrzot)" style="stroke:#000;stroke-width:1.5"/><path fill="none" d="M664.5,36 C664.5,46 682.5,46 682.5,46 C682.5,46 700.5,46 700.5,36" style="stroke:#000;stroke-width:1.5"/><text x="650" y="324.222" fill="#000" font-family="sans-serif" font-size="14" lengthAdjust="spacingAndGlyphs" textLength="59">Firebase</text><path fill="#FEFECE" d="M664.5,337.5234 C664.5,327.5234 682.5,327.5234 682.5,327.5234 C682.5,327.5234 700.5,327.5234 700.5,337.5234 L700.5,363.5234 C700.5,373.5234 682.5,373.5234 682.5,373.5234 C682.5,373.5234 664.5,373.5234 664.5,363.5234 L664.5,337.5234" filter="url(#f1fitjfz9rrzot)" style="stroke:#000;stroke-width:1.5"/><path fill="none" d="M664.5,337.5234 C664.5,347.5234 682.5,347.5234 682.5,347.5234 C682.5,347.5234 700.5,347.5234 700.5,337.5234" style="stroke:#000;stroke-width:1.5"/><polygon fill="#A80036" points="82 115.43 92 119.43 82 123.43 86 119.43" style="stroke:#a80036;stroke-width:1"/><line style="stroke:#a80036;stroke-width:1" x1="24" x2="88" y1="119.43" y2="119.43"/><text x="31" y="114.364" fill="#000" font-family="sans-serif" font-size="13" lengthAdjust="spacingAndGlyphs" textLength="46">sign up</text><polygon fill="#A80036" points="298 144.563 308 148.563 298 152.563 302 148.563" style="stroke:#a80036;stroke-width:1"/><line style="stroke:#a80036;stroke-width:1" x1="94" x2="304" y1="148.563" y2="148.563"/><text x="101" y="143.497" fill="#000" font-family="sans-serif" font-size="13" lengthAdjust="spacingAndGlyphs" textLength="106">resquest sign up</text><polygon fill="#A80036" points="670.5 173.695 680.5 177.695 670.5 181.695 674.5 177.695" style="stroke:#a80036;stroke-width:1"/><line style="stroke:#a80036;stroke-width:1" x1="310" x2="676.5" y1="177.695" y2="177.695"/><text x="317" y="172.629" fill="#000" font-family="sans-serif" font-size="13" lengthAdjust="spacingAndGlyphs" textLength="85">add new user</text><polygon fill="#A80036" points="321 202.828 311 206.828 321 210.828 317 206.828" style="stroke:#a80036;stroke-width:1"/><line style="stroke:#a80036;stroke-width:1" x1="315" x2="681.5" y1="206.828" y2="206.828"/><text x="327" y="201.762" fill="#000" font-family="sans-serif" font-size="13" lengthAdjust="spacingAndGlyphs" textLength="92">auth response</text><polygon fill="#A80036" points="472 231.961 482 235.961 472 239.961 476 235.961" style="stroke:#a80036;stroke-width:1"/><line style="stroke:#a80036;stroke-width:1" x1="310" x2="478" y1="235.961" y2="235.961"/><text x="317" y="230.895" fill="#000" font-family="sans-serif" font-size="13" lengthAdjust="spacingAndGlyphs" textLength="150">dispatch auth response</text><polygon fill="#A80036" points="607 261.094 617 265.094 607 269.094 611 265.094" style="stroke:#a80036;stroke-width:1"/><line style="stroke:#a80036;stroke-width:1" x1="484" x2="613" y1="265.094" y2="265.094"/><text x="491" y="260.028" fill="#000" font-family="sans-serif" font-size="13" lengthAdjust="spacingAndGlyphs" textLength="111">auth data update</text><polygon fill="#A80036" points="105 290.227 95 294.227 105 298.227 101 294.227" style="stroke:#a80036;stroke-width:1"/><line style="stroke:#a80036;stroke-width:1" x1="99" x2="309" y1="294.227" y2="294.227"/><text x="111" y="289.161" fill="#000" font-family="sans-serif" font-size="13" lengthAdjust="spacingAndGlyphs" textLength="192">show Authentication response</text></g></svg>