<?xml version="1.0" encoding="UTF-8" standalone="no"?><svg xmlns="http://www.w3.org/2000/svg" xmlns:xlink="http://www.w3.org/1999/xlink" contentScriptType="application/ecmascript" contentStyleType="text/css" height="396px" preserveAspectRatio="none" style="width:716px;height:396px;" version="1.1" viewBox="0 0 716 396" width="716px" zoomAndPan="magnify"><defs><filter height="300%" id="f1fitjfz9rrzot" width="300%" x="-1" y="-1"><feGaussianBlur result="blurOut" stdDeviation="2.0"/><feColorMatrix in="blurOut" result="blurOut2" type="matrix" values="0 0 0 0 0 0 0 0 0 0 0 0 0 0 0 0 0 0 .4 0"/><feOffset dx="4.0" dy="4.0" in="blurOut2" result="blurOut3"/><feBlend in="SourceGraphic" in2="blurOut3" mode="normal"/></filter></defs><g><line style="stroke:#A80036;stroke-width:1.0;stroke-dasharray:5.0,5.0;" x1="24" x2="24" y1="88.2969" y2="312.2266"/><line style="stroke:#A80036;stroke-width:1.0;stroke-dasharray:5.0,5.0;" x1="93.5" x2="93.5" y1="88.2969" y2="312.2266"/><line style="stroke:#A80036;stroke-width:1.0;stroke-dasharray:5.0,5.0;" x1="144.5" x2="144.5" y1="88.2969" y2="312.2266"/><line style="stroke:#A80036;stroke-width:1.0;stroke-dasharray:5.0,5.0;" x1="309.5" x2="309.5" y1="88.2969" y2="312.2266"/><line style="stroke:#A80036;stroke-width:1.0;stroke-dasharray:5.0,5.0;" x1="483.5" x2="483.5" y1="88.2969" y2="312.2266"/><line style="stroke:#A80036;stroke-width:1.0;stroke-dasharray:5.0,5.0;" x1="619" x2="619" y1="88.2969" y2="312.2266"/><line style="stroke:#A80036;stroke-width:1.0;stroke-dasharray:5.0,5.0;" x1="682" x2="682" y1="88.2969" y2="312.2266"/><text fill="#000000" font-family="sans-serif" font-size="14" lengthAdjust="spacingAndGlyphs" textLength="32" x="5" y="84.9951">User</text><ellipse cx="24" cy="15" fill="#FEFECE" filter="url(#f1fitjfz9rrzot)" rx="8" ry="8" style="stroke:#A80036;stroke-width:2.0;"/><path d="M24,23 L24,50 M11,31 L37,31 M24,50 L11,65 M24,50 L37,65 " fill="none" filter="url(#f1fitjfz9rrzot)" style="stroke:#A80036;stroke-width:2.0;"/><text fill="#000000" font-family="sans-serif" font-size="14" lengthAdjust="spacingAndGlyphs" textLength="32" x="5" y="324.2217">User</text><ellipse cx="24" cy="337.5234" fill="#FEFECE" filter="url(#f1fitjfz9rrzot)" rx="8" ry="8" style="stroke:#A80036;stroke-width:2.0;"/><path d="M24,345.5234 L24,372.5234 M11,353.5234 L37,353.5234 M24,372.5234 L11,387.5234 M24,372.5234 L37,387.5234 " fill="none" filter="url(#f1fitjfz9rrzot)" style="stroke:#A80036;stroke-width:2.0;"/><text fill="#000000" font-family="sans-serif" font-size="14" lengthAdjust="spacingAndGlyphs" textLength="13" x="84.5" y="84.9951">UI</text><path d="M73.5,44 L73.5,68 M73.5,56 L90.5,56 " fill="none" filter="url(#f1fitjfz9rrzot)" style="stroke:#A80036;stroke-width:2.0;"/><ellipse cx="102.5" cy="56" fill="#FEFECE" filter="url(#f1fitjfz9rrzot)" rx="12" ry="12" style="stroke:#A80036;stroke-width:2.0;"/><text fill="#000000" font-family="sans-serif" font-size="14" lengthAdjust="spacingAndGlyphs" textLength="13" x="84.5" y="324.2217">UI</text><path d="M73.5,331.5234 L73.5,355.5234 M73.5,343.5234 L90.5,343.5234 " fill="none" filter="url(#f1fitjfz9rrzot)" style="stroke:#A80036;stroke-width:2.0;"/><ellipse cx="102.5" cy="343.5234" fill="#FEFECE" filter="url(#f1fitjfz9rrzot)" rx="12" ry="12" style="stroke:#A80036;stroke-width:2.0;"/><text fill="#000000" font-family="sans-serif" font-size="14" lengthAdjust="spacingAndGlyphs" textLength="27" x="128.5" y="84.9951">App</text><ellipse cx="145" cy="56" fill="#FEFECE" filter="url(#f1fitjfz9rrzot)" rx="12" ry="12" style="stroke:#A80036;stroke-width:2.0;"/><polygon fill="#A80036" points="141,44,147,39,145,44,147,49,141,44" style="stroke:#A80036;stroke-width:1.0;"/><text fill="#000000" font-family="sans-serif" font-size="14" lengthAdjust="spacingAndGlyphs" textLength="27" x="128.5" y="324.2217">App</text><ellipse cx="145" cy="343.5234" fill="#FEFECE" filter="url(#f1fitjfz9rrzot)" rx="12" ry="12" style="stroke:#A80036;stroke-width:2.0;"/><polygon fill="#A80036" points="141,331.5234,147,326.5234,145,331.5234,147,336.5234,141,331.5234" style="stroke:#A80036;stroke-width:1.0;"/><text fill="#000000" font-family="sans-serif" font-size="14" lengthAdjust="spacingAndGlyphs" textLength="49" x="282.5" y="84.9951">SignUp</text><ellipse cx="310" cy="56" fill="#FEFECE" filter="url(#f1fitjfz9rrzot)" rx="12" ry="12" style="stroke:#A80036;stroke-width:2.0;"/><polygon fill="#A80036" points="306,44,312,39,310,44,312,49,306,44" style="stroke:#A80036;stroke-width:1.0;"/><text fill="#000000" font-family="sans-serif" font-size="14" lengthAdjust="spacingAndGlyphs" textLength="49" x="282.5" y="324.2217">SignUp</text><ellipse cx="310" cy="343.5234" fill="#FEFECE" filter="url(#f1fitjfz9rrzot)" rx="12" ry="12" style="stroke:#A80036;stroke-width:2.0;"/><polygon fill="#A80036" points="306,331.5234,312,326.5234,310,331.5234,312,336.5234,306,331.5234" style="stroke:#A80036;stroke-width:1.0;"/><text fill="#000000" font-family="sans-serif" font-size="14" lengthAdjust="spacingAndGlyphs" textLength="91" x="435.5" y="84.9951">signUpAction</text><ellipse cx="484" cy="56" fill="#FEFECE" filter="url(#f1fitjfz9rrzot)" rx="12" ry="12" style="stroke:#A80036;stroke-width:2.0;"/><polygon fill="#A80036" points="480,44,486,39,484,44,486,49,480,44" style="stroke:#A80036;stroke-width:1.0;"/><text fill="#000000" font-family="sans-serif" font-size="14" lengthAdjust="spacingAndGlyphs" textLength="91" x="435.5" y="324.2217">signUpAction</text><ellipse cx="484" cy="343.5234" fill="#FEFECE" filter="url(#f1fitjfz9rrzot)" rx="12" ry="12" style="stroke:#A80036;stroke-width:2.0;"/><polygon fill="#A80036" points="480,331.5234,486,326.5234,484,331.5234,486,336.5234,480,331.5234" style="stroke:#A80036;stroke-width:1.0;"/><text fill="#000000" font-family="sans-serif" font-size="14" lengthAdjust="spacingAndGlyphs" textLength="36" x="598" y="84.9951">store</text><path d="M601,36 C601,26 619,26 619,26 C619,26 637,26 637,36 L637,62 C637,72 619,72 619,72 C619,72 601,72 601,62 L601,36 " fill="#FEFECE" filter="url(#f1fitjfz9rrzot)" style="stroke:#000000;stroke-width:1.5;"/><path d="M601,36 C601,46 619,46 619,46 C619,46 637,46 637,36 " fill="none" style="stroke:#000000;stroke-width:1.5;"/><text fill="#000000" font-family="sans-serif" font-size="14" lengthAdjust="spacingAndGlyphs" textLength="36" x="598" y="324.2217">store</text><path d="M601,337.5234 C601,327.5234 619,327.5234 619,327.5234 C619,327.5234 637,327.5234 637,337.5234 L637,363.5234 C637,373.5234 619,373.5234 619,373.5234 C619,373.5234 601,373.5234 601,363.5234 L601,337.5234 " fill="#FEFECE" filter="url(#f1fitjfz9rrzot)" style="stroke:#000000;stroke-width:1.5;"/><path d="M601,337.5234 C601,347.5234 619,347.5234 619,347.5234 C619,347.5234 637,347.5234 637,337.5234 " fill="none" style="stroke:#000000;stroke-width:1.5;"/><text fill="#000000" font-family="sans-serif" font-size="14" lengthAdjust="spacingAndGlyphs" textLength="59" x="650" y="84.9951">Firebase</text><path d="M664.5,36 C664.5,26 682.5,26 682.5,26 C682.5,26 700.5,26 700.5,36 L700.5,62 C700.5,72 682.5,72 682.5,72 C682.5,72 664.5,72 664.5,62 L664.5,36 " fill="#FEFECE" filter="url(#f1fitjfz9rrzot)" style="stroke:#000000;stroke-width:1.5;"/><path d="M664.5,36 C664.5,46 682.5,46 682.5,46 C682.5,46 700.5,46 700.5,36 " fill="none" style="stroke:#000000;stroke-width:1.5;"/><text fill="#000000" font-family="sans-serif" font-size="14" lengthAdjust="spacingAndGlyphs" textLength="59" x="650" y="324.2217">Firebase</text><path d="M664.5,337.5234 C664.5,327.5234 682.5,327.5234 682.5,327.5234 C682.5,327.5234 700.5,327.5234 700.5,337.5234 L700.5,363.5234 C700.5,373.5234 682.5,373.5234 682.5,373.5234 C682.5,373.5234 664.5,373.5234 664.5,363.5234 L664.5,337.5234 " fill="#FEFECE" filter="url(#f1fitjfz9rrzot)" style="stroke:#000000;stroke-width:1.5;"/><path d="M664.5,337.5234 C664.5,347.5234 682.5,347.5234 682.5,347.5234 C682.5,347.5234 700.5,347.5234 700.5,337.5234 " fill="none" style="stroke:#000000;stroke-width:1.5;"/><polygon fill="#A80036" points="82,115.4297,92,119.4297,82,123.4297,86,119.4297" style="stroke:#A80036;stroke-width:1.0;"/><line style="stroke:#A80036;stroke-width:1.0;" x1="24" x2="88" y1="119.4297" y2="119.4297"/><text fill="#000000" font-family="sans-serif" font-size="13" lengthAdjust="spacingAndGlyphs" textLength="46" x="31" y="114.3638">sign up</text><polygon fill="#A80036" points="298,144.5625,308,148.5625,298,152.5625,302,148.5625" style="stroke:#A80036;stroke-width:1.0;"/><line style="stroke:#A80036;stroke-width:1.0;" x1="94" x2="304" y1="148.5625" y2="148.5625"/><text fill="#000000" font-family="sans-serif" font-size="13" lengthAdjust="spacingAndGlyphs" textLength="106" x="101" y="143.4966">resquest sign up</text><polygon fill="#A80036" points="670.5,173.6953,680.5,177.6953,670.5,181.6953,674.5,177.6953" style="stroke:#A80036;stroke-width:1.0;"/><line style="stroke:#A80036;stroke-width:1.0;" x1="310" x2="676.5" y1="177.6953" y2="177.6953"/><text fill="#000000" font-family="sans-serif" font-size="13" lengthAdjust="spacingAndGlyphs" textLength="85" x="317" y="172.6294">add new user</text><polygon fill="#A80036" points="321,202.8281,311,206.8281,321,210.8281,317,206.8281" style="stroke:#A80036;stroke-width:1.0;"/><line style="stroke:#A80036;stroke-width:1.0;" x1="315" x2="681.5" y1="206.8281" y2="206.8281"/><text fill="#000000" font-family="sans-serif" font-size="13" lengthAdjust="spacingAndGlyphs" textLength="92" x="327" y="201.7622">auth response</text><polygon fill="#A80036" points="472,231.9609,482,235.9609,472,239.9609,476,235.9609" style="stroke:#A80036;stroke-width:1.0;"/><line style="stroke:#A80036;stroke-width:1.0;" x1="310" x2="478" y1="235.9609" y2="235.9609"/><text fill="#000000" font-family="sans-serif" font-size="13" lengthAdjust="spacingAndGlyphs" textLength="150" x="317" y="230.895">dispatch auth response</text><polygon fill="#A80036" points="607,261.0938,617,265.0938,607,269.0938,611,265.0938" style="stroke:#A80036;stroke-width:1.0;"/><line style="stroke:#A80036;stroke-width:1.0;" x1="484" x2="613" y1="265.0938" y2="265.0938"/><text fill="#000000" font-family="sans-serif" font-size="13" lengthAdjust="spacingAndGlyphs" textLength="111" x="491" y="260.0278">auth data update</text><polygon fill="#A80036" points="105,290.2266,95,294.2266,105,298.2266,101,294.2266" style="stroke:#A80036;stroke-width:1.0;"/><line style="stroke:#A80036;stroke-width:1.0;" x1="99" x2="309" y1="294.2266" y2="294.2266"/><text fill="#000000" font-family="sans-serif" font-size="13" lengthAdjust="spacingAndGlyphs" textLength="192" x="111" y="289.1606">show Authentication response</text><!--MD5=[7b2a6c9062537782a2aadb0f967e486b]
@startuml

actor User
boundary UI
control App
control SignUp
control signUpAction
database store
database Firebase

User -> UI: sign up
UI -> SignUp: resquest sign up
SignUp -> Firebase: add new user
Firebase -> SignUp: auth response
SignUp -> signUpAction: dispatch auth response
signUpAction -> store: auth data update
SignUp -> UI: show Authentication response

@enduml

PlantUML version 1.2020.22(Sun Dec 06 09:36:27 WET 2020)
(GPL source distribution)
Java Runtime: OpenJDK Runtime Environment
JVM: OpenJDK 64-Bit Server VM
Default Encoding: UTF-8
Language: en
Country: null
--></g></svg>